<svg width="24" height="24" viewBox="0 0 24 24" fill="none" xmlns="http://www.w3.org/2000/svg">
<path fill-rule="evenodd" clip-rule="evenodd" d="M12 19.9995C7.58201 19.9995 4.00001 16.4175 4.00001 11.9995C4.00001 7.58152 7.58201 3.99952 12 3.99952C16.418 3.99952 20 7.58152 20 11.9995C20 16.4175 16.418 19.9995 12 19.9995ZM13.696 2.14052C6.86301 1.01052 1.01101 6.86252 2.14101 13.6955C2.82501 17.8355 6.16401 21.1745 10.304 21.8585C17.137 22.9885 22.989 17.1365 21.859 10.3025C21.175 6.16352 17.836 2.82452 13.696 2.14052ZM12 6.63332C11.31 6.63332 10.75 7.19332 10.75 7.88332L11.25 11.9993C11.25 12.4133 11.586 12.7493 12 12.7493C12.414 12.7493 12.75 12.4133 12.75 11.9993L13.25 7.88332C13.25 7.19332 12.69 6.63332 12 6.63332ZM10.75 15.9995C10.75 15.3095 11.31 14.7495 12 14.7495C12.69 14.7495 13.25 15.3095 13.25 15.9995C13.25 16.6895 12.69 17.2495 12 17.2495C11.31 17.2495 10.75 16.6895 10.75 15.9995Z" fill="black" fill-opacity="0.56"/>
</svg>
