<svg width="24" height="24" viewBox="0 0 24 24" fill="none" xmlns="http://www.w3.org/2000/svg">
<path fill-rule="evenodd" clip-rule="evenodd" d="M10.6314 2.58495L8.79041 2.10495C7.13741 1.66495 5.44041 2.64695 5.00041 4.29995C5.00041 4.30045 5.00016 4.30095 4.99991 4.30145C4.99966 4.30195 4.99941 4.30245 4.99941 4.30295L4.53941 6.03895C6.05541 4.15295 8.23441 2.91795 10.6314 2.58495ZM2.55521 13.5123L2.10421 15.2133C1.66521 16.8663 2.65021 18.5623 4.30321 19.0003L6.05921 19.4693C4.18321 17.9943 2.93221 15.8673 2.55521 13.5123ZM17.7264 4.47605L19.6964 5.00005C21.3464 5.43805 22.3314 7.12805 21.8974 8.77905L21.3564 10.8281C21.0454 8.31105 19.7374 6.02305 17.7264 4.47605ZM13.3243 21.3951L15.2123 21.9051C16.8653 22.3431 18.5603 21.3591 19.0003 19.7071L19.5333 17.7041C18.0303 19.7051 15.8003 21.0311 13.3243 21.3951ZM13.3086 8.85295C13.0486 10.195 13.9276 11.494 15.2706 11.753V11.756C15.2726 11.756 15.2736 11.756 15.2746 11.757C16.6186 12.013 17.9156 11.132 18.1716 9.78895C18.4296 8.44595 17.5506 7.14895 16.2086 6.88995C14.8666 6.63095 13.5676 7.50995 13.3086 8.85295ZM14.0096 18.305C15.3526 18.565 16.6516 17.686 16.9106 16.343V16.341C17.1676 14.999 16.2896 13.701 14.9466 13.442C13.6036 13.184 12.3056 14.063 12.0466 15.405C11.7876 16.748 12.6666 18.046 14.0096 18.305ZM10.8726 11.854C10.7566 12.451 11.1466 13.028 11.7436 13.143C11.7445 13.1434 11.7457 13.1437 11.7467 13.1439C11.7479 13.1442 11.7491 13.1444 11.7496 13.145C12.3476 13.256 12.9226 12.863 13.0346 12.265C13.1456 11.67 12.7556 11.097 12.1616 10.982C11.5646 10.867 10.9876 11.257 10.8726 11.854ZM7.78961 17.107C9.13161 17.368 10.4316 16.491 10.6926 15.149C10.6926 15.1483 10.6926 15.1476 10.6929 15.1469C10.6931 15.1466 10.6933 15.1463 10.6936 15.146C10.9526 13.803 10.0746 12.504 8.73161 12.245C7.38961 11.986 6.09161 12.863 5.83161 14.204C5.56961 15.546 6.44661 16.846 7.78961 17.107ZM9.98961 5.69195C8.64661 5.43395 7.34861 6.31195 7.08961 7.65495C7.08961 7.65538 7.08961 7.65562 7.08954 7.65584C7.08943 7.65614 7.08919 7.65638 7.08861 7.65695C6.83161 8.99995 7.71061 10.298 9.05361 10.556C10.3956 10.814 11.6936 9.93495 11.9526 8.59295C12.2116 7.24995 11.3326 5.95095 9.98961 5.69195ZM3.32561 11.999C3.32661 7.20895 7.21061 3.32695 12.0006 3.32895C16.7906 3.32995 20.6716 7.21295 20.6716 12.002V12.004C20.6696 16.795 16.7856 20.676 11.9956 20.675C7.20561 20.673 3.32361 16.789 3.32561 11.999Z" fill="black" fill-opacity="0.56"/>
</svg>
