<svg width="24" height="24" viewBox="0 0 24 24" fill="none" xmlns="http://www.w3.org/2000/svg">
<path d="M16 18.0005H7.99999C7.44999 18.0005 6.99999 17.5505 6.99999 17.0005V12.0005H4.49999C4.09999 12.0005 3.72999 11.7605 3.57999 11.3805C3.41999 11.0105 3.50999 10.5805 3.79999 10.2905L11.3 2.79055C11.69 2.40055 12.32 2.40055 12.71 2.79055L20.21 10.2905C20.5 10.5805 20.58 11.0105 20.43 11.3805C20.27 11.7605 19.9 12.0005 19.5 12.0005H17V17.0005C17 17.5505 16.55 18.0005 16 18.0005ZM8.99999 16.0005H15V11.0005C15 10.4505 15.45 10.0005 16 10.0005H17.09L12 4.91055L6.90999 10.0005H7.99999C8.54999 10.0005 8.99999 10.4505 8.99999 11.0005V16.0005Z" fill="black" fill-opacity="0.56"/>
<path d="M16 22H7.99998C7.44998 22 6.99998 21.55 6.99998 21C6.99998 20.45 7.44998 20 7.99998 20H16C16.55 20 17 20.45 17 21C17 21.55 16.55 22 16 22Z" fill="black" fill-opacity="0.56"/>
</svg>
