<svg width="24" height="24" viewBox="0 0 24 24" fill="none" xmlns="http://www.w3.org/2000/svg">
<path d="M16 20.0005H7.99999C7.44999 20.0005 6.99999 19.5505 6.99999 19.0005V14.0005H4.49999C4.09999 14.0005 3.72999 13.7605 3.57999 13.3805C3.41999 13.0105 3.50999 12.5805 3.79999 12.2905L11.3 4.79055C11.69 4.40055 12.32 4.40055 12.71 4.79055L20.21 12.2905C20.5 12.5805 20.58 13.0105 20.43 13.3805C20.27 13.7605 19.9 14.0005 19.5 14.0005H17V19.0005C17 19.5505 16.55 20.0005 16 20.0005ZM8.99999 18.0005H15V13.0005C15 12.4505 15.45 12.0005 16 12.0005H17.09L12 6.91055L6.90999 12.0005H7.99999C8.54999 12.0005 8.99999 12.4505 8.99999 13.0005V18.0005Z" fill="black" fill-opacity="0.56"/>
</svg>
