<svg width="24" height="24" viewBox="0 0 24 24" fill="none" xmlns="http://www.w3.org/2000/svg">
<path fill-rule="evenodd" clip-rule="evenodd" d="M11.6172 6.07618C11.8612 5.97518 12.1372 5.97518 12.3812 6.07618C12.5042 6.12718 12.6142 6.20118 12.7072 6.29318L17.2722 10.8592C17.6632 11.2492 17.6632 11.8822 17.2722 12.2732C16.8822 12.6632 16.2492 12.6632 15.8582 12.2732L12.9992 9.41318V16.9992C12.9992 17.5522 12.5522 17.9992 11.9992 17.9992C11.4472 17.9992 10.9992 17.5522 10.9992 16.9992V9.41318L8.13919 12.2732C7.74919 12.6632 7.11619 12.6632 6.72519 12.2732C6.53019 12.0772 6.43219 11.8222 6.43219 11.5662C6.43219 11.3102 6.53019 11.0542 6.72519 10.8592L11.2922 6.29318C11.3842 6.20118 11.4952 6.12718 11.6172 6.07618Z" fill="black" fill-opacity="0.56"/>
</svg>
