<svg width="24" height="24" viewBox="0 0 24 24" fill="none" xmlns="http://www.w3.org/2000/svg">
<path fill-rule="evenodd" clip-rule="evenodd" d="M12.7187 18.9067L18.3647 13.2397C18.7547 12.8477 18.7517 12.2157 18.3637 11.8257C17.9717 11.4347 17.3387 11.4367 16.9477 11.8277L13.0107 15.7807V5.80072C13.0107 5.24772 12.5627 4.80072 12.0107 4.80072C11.4577 4.80072 11.0107 5.24772 11.0107 5.80072V15.7867L7.05069 11.8267C6.65969 11.4357 6.02769 11.4357 5.63669 11.8267C5.44169 12.0217 5.34369 12.2777 5.34369 12.5337C5.34369 12.7897 5.44169 13.0457 5.63669 13.2407L11.3037 18.9077C11.4907 19.0947 11.7457 19.2007 12.0117 19.2007C12.2777 19.2007 12.5317 19.0937 12.7187 18.9067Z" fill="black" fill-opacity="0.56"/>
</svg>
