<svg width="24" height="24" viewBox="0 0 24 24" fill="none" xmlns="http://www.w3.org/2000/svg">
<path fill-rule="evenodd" clip-rule="evenodd" d="M12.3809 17.9238C12.1369 18.0248 11.8609 18.0248 11.6169 17.9238C11.4949 17.8728 11.3839 17.7988 11.2919 17.7068L6.72593 13.1408C6.33493 12.7508 6.33493 12.1178 6.72593 11.7268C7.11593 11.3368 7.74893 11.3368 8.13993 11.7268L10.9989 14.5868V7.00079C10.9989 6.44779 11.4469 6.00079 11.9989 6.00079C12.5519 6.00079 12.9989 6.44779 12.9989 7.00079V14.5868L15.8589 11.7268C16.2489 11.3368 16.8819 11.3368 17.2729 11.7268C17.4679 11.9228 17.5659 12.1778 17.5659 12.4338C17.5659 12.6898 17.4679 12.9458 17.2729 13.1408L12.7069 17.7068C12.6139 17.7988 12.5039 17.8728 12.3809 17.9238Z" fill="black" fill-opacity="0.56"/>
</svg>
