<svg width="24" height="24" viewBox="0 0 24 24" fill="none" xmlns="http://www.w3.org/2000/svg">
<path d="M14.5 21H9.49998C8.66998 21 7.99998 20.33 7.99998 19.5V13H5.61998C5.00998 13 4.46998 12.64 4.22998 12.07C3.99998 11.51 4.11998 10.87 4.55998 10.44L10.94 4.06C11.52 3.48 12.48 3.48 13.06 4.06L19.44 10.44C19.87 10.87 20 11.51 19.77 12.07C19.54 12.64 18.99 13 18.38 13H16V19.5C16 20.33 15.33 21 14.5 21ZM9.99998 19H14V11H17.18L12 5.82L6.81998 11H9.99998V19Z" fill="black" fill-opacity="0.56"/>
</svg>
