<svg width="24" height="24" viewBox="0 0 24 24" fill="none" xmlns="http://www.w3.org/2000/svg">
<path fill-rule="evenodd" clip-rule="evenodd" d="M16.001 5.05324C16.112 5.05324 16.225 5.02824 16.332 4.97624C16.703 4.79224 16.855 4.34324 16.673 3.97124C16.389 3.39624 16.389 2.71024 16.673 2.13524C16.855 1.76324 16.703 1.31424 16.332 1.13024C15.956 0.947235 15.51 1.09924 15.327 1.47124C14.839 2.46224 14.839 3.64424 15.327 4.63524C15.458 4.90024 15.724 5.05324 16.001 5.05324ZM11.6681 7.47574C11.2971 7.29274 11.1441 6.84274 11.3271 6.47174C11.6111 5.89674 11.6111 5.20973 11.3271 4.63474C10.8391 3.64474 10.8391 2.46174 11.3271 1.47174C11.5101 1.09974 11.9551 0.947735 12.3321 1.13074C12.7031 1.31374 12.8551 1.76374 12.6731 2.13474C12.3891 2.70974 12.3891 3.39674 12.6731 3.97174C13.1611 4.96174 13.1611 6.14474 12.6731 7.13474C12.5421 7.39974 12.2761 7.55374 11.9991 7.55374C11.8881 7.55374 11.7751 7.52874 11.6681 7.47574ZM16 19.9458C16 20.4968 16.448 20.9458 17 20.9458C17.552 20.9458 18 20.4968 18 19.9458C18 19.3948 17.552 18.9458 17 18.9458C16.448 18.9458 16 19.3948 16 19.9458ZM17 10.9998H7C7 12.6538 8.346 13.9998 10 13.9998H14C15.654 13.9998 17 12.6538 17 10.9998ZM14.185 18.9998C14.599 17.8378 15.698 16.9998 17 16.9998C18.839 16.9998 20.297 18.6628 19.948 20.5648C19.731 21.7428 18.775 22.7108 17.601 22.9408C16.045 23.2448 14.661 22.3358 14.185 20.9998H7.849L6.842 22.5458C6.65 22.8398 6.33 22.9998 6.003 22.9998C5.815 22.9998 5.627 22.9468 5.458 22.8378C4.995 22.5358 4.864 21.9168 5.166 21.4538L8.82 15.8438C6.634 15.3108 5 13.3478 5 10.9998V9.99984C5 9.44683 5.447 8.99984 6 8.99984H18C18.553 8.99984 19 9.44683 19 9.99984V10.9998C19 13.3358 17.383 15.2878 15.214 15.8338L15.49 16.2998C14.854 16.5588 14.311 16.9868 13.888 17.5158L12.986 15.9998H11.106L9.152 18.9998H14.185ZM7.3271 4.66994C7.6111 5.24494 7.6111 5.93194 7.3271 6.50694C7.1441 6.87794 7.2971 7.32794 7.6681 7.51094C7.7751 7.56394 7.8881 7.58794 7.9991 7.58794C8.2761 7.58794 8.5421 7.43494 8.6731 7.16994C9.1611 6.17994 9.1611 4.99694 8.6731 4.00694C8.4891 3.63494 8.0421 3.48294 7.6681 3.66594C7.2971 3.84894 7.1441 4.29894 7.3271 4.66994ZM7.75 1.80324C7.75 2.21824 7.414 2.55324 7 2.55324C6.586 2.55324 6.25 2.21824 6.25 1.80324C6.25 1.38924 6.586 1.05324 7 1.05324C7.414 1.05324 7.75 1.38924 7.75 1.80324ZM17 7.58844C16.586 7.58844 16.25 7.25244 16.25 6.83844C16.25 6.42444 16.586 6.08844 17 6.08844C17.414 6.08844 17.75 6.42444 17.75 6.83844C17.75 7.25244 17.414 7.58844 17 7.58844Z" fill="black" fill-opacity="0.56"/>
</svg>
