<svg width="24" height="24" viewBox="0 0 24 24" fill="none" xmlns="http://www.w3.org/2000/svg">
<path d="M9.16998 10.5802L10.58 9.17023L7.12998 5.72023C6.73998 5.33023 6.10997 5.33023 5.71997 5.72023C5.32998 6.11023 5.32998 6.74023 5.71997 7.13023L9.16998 10.5802Z" fill="black" fill-opacity="0.56"/>
<path d="M13 6.76009V5.83009L13.46 6.29009L14.87 4.88009L12.7 2.71009C12.41 2.42009 11.98 2.34009 11.61 2.49009C11.24 2.64009 11 3.01009 11 3.41009V8.75009L13 6.76009Z" fill="black" fill-opacity="0.56"/>
<path d="M21.13 4.29039C21.52 3.90039 21.52 3.27039 21.13 2.88039C20.74 2.49039 20.11 2.49039 19.72 2.88039L2.51998 20.0804C2.12998 20.4704 2.12998 21.1004 2.51998 21.4904C2.71998 21.6904 2.96998 21.7804 3.22998 21.7804C3.48998 21.7804 3.73998 21.6804 3.93998 21.4904L7.14998 18.2804L11 14.4104V20.5904C11 20.9904 11.24 21.3604 11.62 21.5104C11.74 21.5604 11.87 21.5904 12 21.5904C12.26 21.5904 12.52 21.4904 12.71 21.3004L17 17.0004C17.39 16.6104 17.39 15.9804 17 15.5904L13.42 12.0004L21.13 4.29039ZM14.88 16.2904L13 18.1704V14.4104L14.88 16.2904Z" fill="black" fill-opacity="0.56"/>
</svg>
