<svg width="24" height="24" viewBox="0 0 24 24" fill="none" xmlns="http://www.w3.org/2000/svg">
<path fill-rule="evenodd" clip-rule="evenodd" d="M19.3105 5.61855L14.1605 11.0515C14.0225 10.8185 13.8515 10.5885 13.6315 10.3685C13.4115 10.1475 13.1755 9.97855 12.9395 9.84055L18.3775 4.69355C18.6365 4.44855 19.0405 4.45455 19.2925 4.70655C19.5445 4.95955 19.5515 5.36155 19.3105 5.61855ZM8.68553 17.4295C7.68353 18.0365 6.62253 18.2755 5.31153 18.3005C5.69253 17.6965 5.91253 17.0465 6.10953 16.4595C6.46153 15.4135 6.71553 14.7505 7.44853 14.3135C7.72253 14.1505 8.01753 14.0745 8.30853 14.0495C8.76353 14.0415 9.33353 14.1815 9.70653 14.5535C9.73053 14.5775 9.74453 14.5995 9.76553 14.6225C9.81553 14.6825 9.87153 14.7365 9.91253 14.8055C10.3895 15.6045 9.87253 16.7085 8.68553 17.4295ZM12.2175 11.7825C12.4945 12.0585 12.6005 12.3825 12.6425 12.6525L11.6125 13.7385C11.5715 13.6755 11.5095 13.6185 11.4625 13.5565C11.1225 13.0785 10.6855 12.7055 10.1825 12.4505L11.3285 11.3655C11.5905 11.4035 11.9365 11.5005 12.2175 11.7825ZM20.7065 3.29255C19.6845 2.27055 18.0605 2.24555 17.0045 3.23955L7.59653 12.1435C7.19653 12.2345 6.79853 12.3735 6.42453 12.5965C5.01953 13.4325 4.57353 14.7575 4.21353 15.8205C3.78953 17.0825 3.49053 17.8155 2.30753 18.2015C1.85853 18.3475 1.57353 18.7885 1.62353 19.2585C1.67353 19.7285 2.04653 20.0985 2.51653 20.1465C3.44353 20.2415 4.28753 20.3015 5.07353 20.3015C6.83453 20.3015 8.29853 20.0026 9.72253 19.1395C10.9535 18.3925 11.7245 17.3445 11.9845 16.2515L14.3535 13.7535C14.3645 13.7435 14.3735 13.7325 14.3835 13.7225L20.7655 6.99155C21.7525 5.93855 21.7275 4.31455 20.7065 3.29255Z" fill="black" fill-opacity="0.56"/>
</svg>
