<svg width="24" height="24" viewBox="0 0 24 24" fill="none" xmlns="http://www.w3.org/2000/svg">
<path fill-rule="evenodd" clip-rule="evenodd" d="M11.6309 13.7804C11.2299 13.1074 10.6329 12.6204 9.94891 12.3324L11.0059 11.3374C11.1879 11.3354 11.7869 11.3514 12.2179 11.7824C12.6249 12.1894 12.6769 12.7134 12.6709 12.9914L11.7249 13.9864C11.6899 13.9184 11.6709 13.8474 11.6309 13.7804ZM20.7069 3.29345C19.6869 2.27145 18.0609 2.24445 17.0039 3.23945L10.2849 9.61245C10.1089 9.78045 10.0139 10.0024 9.98891 10.2344L8.04591 12.0644C7.49191 12.1244 6.93891 12.2894 6.42491 12.5954C5.01991 13.4324 4.57291 14.7574 4.21391 15.8204C3.78891 17.0824 3.48991 17.8154 2.30791 18.2014C1.85891 18.3474 1.57291 18.7884 1.62391 19.2584C1.67391 19.7284 2.04691 20.0984 2.51691 20.1464C3.44291 20.2414 4.28691 20.3014 5.07291 20.3014C6.83491 20.3014 8.29891 20.0024 9.72291 19.1384C11.1219 18.2894 11.9429 17.0514 12.0699 15.7994L13.7849 13.9964C14.0129 13.9694 14.2329 13.8814 14.3969 13.7074L20.7639 6.99145C21.7529 5.93845 21.7289 4.31445 20.7069 3.29345Z" fill="black" fill-opacity="0.56"/>
</svg>
