<svg width="24" height="24" viewBox="0 0 24 24" fill="none" xmlns="http://www.w3.org/2000/svg">
<path fill-rule="evenodd" clip-rule="evenodd" d="M20 7.9805H4C3.447 7.9805 3 7.5325 3 6.9805C3 6.4285 3.447 5.9805 4 5.9805H20C20.553 5.9805 21 6.4285 21 6.9805C21 7.5325 20.553 7.9805 20 7.9805ZM20 11H4C3.447 11 3 11.448 3 12C3 12.552 3.447 13 4 13H20C20.553 13 21 12.552 21 12C21 11.448 20.553 11 20 11ZM20 16.0195H4C3.447 16.0195 3 16.4675 3 17.0195C3 17.5715 3.447 18.0195 4 18.0195H20C20.553 18.0195 21 17.5715 21 17.0195C21 16.4675 20.553 16.0195 20 16.0195Z" fill="black" fill-opacity="0.56"/>
</svg>
