<svg width="24" height="24" viewBox="0 0 24 24" fill="none" xmlns="http://www.w3.org/2000/svg">
<path fill-rule="evenodd" clip-rule="evenodd" d="M8.49858 5.8747C8.29558 5.3627 8.54358 4.7797 9.05658 4.5747C12.9436 3.0217 17.4106 4.7617 19.2276 8.5377C19.7526 9.6297 20.0196 10.7947 20.0196 11.9997V12.0197H21.7756C22.2196 12.0197 22.4436 12.5547 22.1316 12.8707L19.3756 15.6687C19.1796 15.8667 18.8596 15.8667 18.6636 15.6687L15.9076 12.8707C15.5966 12.5547 15.8206 12.0197 16.2636 12.0197H18.0196C18.0202 12.0151 18.02 12.0109 18.0198 12.0065C18.0197 12.0043 18.0196 12.0021 18.0196 11.9997C18.0196 11.0967 17.8196 10.2247 17.4246 9.4047C16.0626 6.5737 12.7126 5.2677 9.79858 6.4317C9.28558 6.6377 8.70358 6.3867 8.49858 5.8747ZM5.98018 12.0344C5.98018 12.9374 6.18018 13.8094 6.57518 14.6294C7.93718 17.4604 11.2872 18.7664 14.2012 17.6024C14.7142 17.3974 15.2962 17.6474 15.5012 18.1594C15.5502 18.2814 15.5732 18.4064 15.5732 18.5304C15.5732 18.9274 15.3352 19.3034 14.9432 19.4594C11.0562 21.0124 6.59018 19.2724 4.77318 15.4964C4.24418 14.3994 3.98218 13.2074 3.98018 12.0134H2.22418C1.78018 12.0134 1.55618 11.4794 1.86818 11.1634L4.62418 8.3654C4.82018 8.1664 5.14018 8.1664 5.33618 8.3654L8.09318 11.1634C8.40318 11.4794 8.17918 12.0134 7.73618 12.0134H5.98018V12.0144C5.97969 12.0174 5.97992 12.0206 5.98017 12.0239C5.98042 12.0273 5.98069 12.0309 5.98018 12.0344Z" fill="black" fill-opacity="0.56"/>
</svg>
