<svg width="24" height="24" viewBox="0 0 24 24" fill="none" xmlns="http://www.w3.org/2000/svg">
<path fill-rule="evenodd" clip-rule="evenodd" d="M7.07712 16.3618C7.17912 16.6068 7.37312 16.8018 7.61812 16.9028C7.74012 16.9538 7.87012 16.9798 8.00012 16.9798H14.0001C14.5531 16.9798 15.0001 16.5318 15.0001 15.9798C15.0001 15.4278 14.5531 14.9798 14.0001 14.9798H10.4141L16.7071 8.6868C17.0981 8.2968 17.0981 7.6638 16.7071 7.2728C16.5121 7.0778 16.2561 6.9798 16.0001 6.9798C15.7441 6.9798 15.4881 7.0778 15.2931 7.2728L9.00012 13.5658V9.9798C9.00012 9.4278 8.55312 8.9798 8.00012 8.9798C7.44712 8.9798 7.00012 9.4278 7.00012 9.9798V15.9798C7.00012 16.1108 7.02612 16.2398 7.07712 16.3618Z" fill="black" fill-opacity="0.56"/>
</svg>
