<svg width="24" height="24" viewBox="0 0 24 24" fill="none" xmlns="http://www.w3.org/2000/svg">
<path fill-rule="evenodd" clip-rule="evenodd" d="M16.9229 7.5981C16.8209 7.3531 16.6269 7.1581 16.3819 7.0571C16.2599 7.0061 16.1299 6.9801 15.9999 6.9801H9.99988C9.44688 6.9801 8.99988 7.4281 8.99988 7.9801C8.99988 8.5321 9.44688 8.9801 9.99988 8.9801H13.5859L7.29288 15.2731C6.90188 15.6631 6.90188 16.2961 7.29288 16.6871C7.48788 16.8821 7.74388 16.9801 7.99988 16.9801C8.25588 16.9801 8.51188 16.8821 8.70688 16.6871L14.9999 10.3941V13.9801C14.9999 14.5321 15.4469 14.9801 15.9999 14.9801C16.5529 14.9801 16.9999 14.5321 16.9999 13.9801V7.9801C16.9999 7.8491 16.9739 7.7201 16.9229 7.5981Z" fill="black" fill-opacity="0.56"/>
</svg>
