<svg width="24" height="24" viewBox="0 0 24 24" fill="none" xmlns="http://www.w3.org/2000/svg">
<path fill-rule="evenodd" clip-rule="evenodd" d="M15.395 4.1666C14.518 5.0436 14.518 6.4716 15.395 7.3486C16.273 8.2256 17.7 8.2256 18.577 7.3486C19.454 6.4716 19.454 5.0436 18.577 4.1666C18.152 3.7416 17.587 3.5076 16.986 3.5076C16.385 3.5076 15.82 3.7416 15.395 4.1666ZM20.114 7.8256L21.759 9.4696C22.052 9.7626 22.052 10.2376 21.759 10.5306C21.613 10.6766 21.421 10.7496 21.229 10.7496C21.037 10.7496 20.845 10.6766 20.699 10.5306L19.054 8.8856C18.43 9.2986 17.708 9.5056 16.986 9.5056C16.026 9.5056 15.066 9.1406 14.334 8.4096C12.873 6.9466 12.873 4.5676 14.334 3.1056C15.751 1.6896 18.222 1.6886 19.638 3.1056C20.918 4.3866 21.077 6.3696 20.114 7.8256ZM19.9497 15.2404C20.0017 15.2084 20.0507 15.1724 20.0947 15.1304C20.2757 14.9604 20.3777 14.7124 20.3267 14.4494C20.2957 14.2894 20.2057 14.1614 20.0947 14.0574C20.0137 13.9814 19.9177 13.9254 19.8147 13.8884C19.8106 13.887 19.8067 13.8852 19.8027 13.8834C19.798 13.8812 19.7931 13.879 19.7877 13.8774C19.6797 13.8434 19.5647 13.8324 19.4477 13.8574L18.8287 13.9794C17.8497 14.1044 16.8537 14.2064 15.8667 14.2834C15.4537 14.3164 15.1457 14.6774 15.1777 15.0894C15.2087 15.4834 15.5367 15.7814 15.9247 15.7814C15.9447 15.7814 15.9647 15.7804 15.9847 15.7784C16.9937 15.6994 18.0147 15.5944 19.0677 15.4594L19.0967 15.4534L19.7347 15.3294C19.8137 15.3134 19.8827 15.2774 19.9497 15.2404ZM8.0107 15.7784C8.0307 15.7804 8.0507 15.7814 8.0707 15.7814C8.4577 15.7814 8.7857 15.4834 8.8177 15.0894C8.8497 14.6764 8.5407 14.3164 8.1277 14.2834C7.1417 14.2064 6.1447 14.1044 5.2147 13.9874L4.5487 13.8574C4.4297 13.8344 4.3147 13.8444 4.2077 13.8784C4.20243 13.8796 4.19751 13.8818 4.19253 13.884C4.189 13.8856 4.18543 13.8872 4.1817 13.8884C4.0797 13.9244 3.9847 13.9784 3.9057 14.0524C3.7917 14.1564 3.6997 14.2864 3.6677 14.4494C3.6167 14.7134 3.7207 14.9634 3.9057 15.1344C3.9487 15.1744 3.9957 15.2094 4.0457 15.2404C4.1127 15.2774 4.1807 15.3134 4.2597 15.3294L4.9757 15.4674C5.9797 15.5954 7.0007 15.6994 8.0107 15.7784ZM19.2847 11.9444C19.8037 12.4634 20.4947 12.7504 21.2287 12.7504C21.5077 12.7504 21.7767 12.6964 22.0357 12.6164C22.0727 12.8994 22.0967 13.1834 22.0967 13.4684V17.9054H22.0747C22.0747 17.9764 22.0707 18.0464 22.0567 18.1124V19.6874V20.9394C22.0567 21.6304 21.4967 22.1914 20.8057 22.1914C20.1147 22.1914 19.5537 21.6304 19.5537 20.9394V19.6874H19.5567V19.0584C17.0437 19.2854 14.5197 19.4064 11.9947 19.4064C9.4717 19.4064 6.9497 19.2864 4.4387 19.0594V19.6874H4.4397V20.9394C4.4397 21.6304 3.8787 22.1914 3.1877 22.1914C2.4957 22.1914 1.9357 21.6304 1.9357 20.9394V19.6874H1.9387V18.1774C1.91462 18.0946 1.91466 18.0053 1.91469 17.9157L1.9147 17.9054H1.9047V13.4684C1.9047 12.9544 1.9707 12.4424 2.0777 11.9374L0.513697 11.0664C0.0316971 10.7974 -0.142303 10.1884 0.126697 9.7064C0.395697 9.2234 1.0077 9.0494 1.4867 9.3194L2.7537 10.0254C2.76049 10.0123 2.76619 9.99873 2.77194 9.985C2.7772 9.97245 2.78249 9.95981 2.7887 9.9474L4.9907 5.8224C5.5777 4.7204 6.7467 4.0364 8.0417 4.0364H11.5287C11.3237 4.6874 11.2327 5.3604 11.2657 6.0364H8.0417C7.4957 6.0364 6.9907 6.3214 6.7537 6.7644L4.7457 10.5294C7.9597 10.9074 11.2007 11.0104 14.4327 10.8834C15.2197 11.2764 16.0817 11.5054 16.9867 11.5054C17.5417 11.5054 18.0887 11.4264 18.6127 11.2724L19.2847 11.9444Z" fill="black" fill-opacity="0.56"/>
</svg>
