<svg width="24" height="24" viewBox="0 0 24 24" fill="none" xmlns="http://www.w3.org/2000/svg">
<path fill-rule="evenodd" clip-rule="evenodd" d="M5 11.96C5 15.826 8.134 18.96 12 18.96C15.866 18.96 19 15.826 19 11.96C19 8.09396 15.866 4.95996 12 4.95996C8.134 4.95996 5 8.09396 5 11.96ZM12 1.95996C13.379 1.95996 14.692 2.23996 15.889 2.74696C19.477 4.26696 22 7.82396 22 11.96C22 16.095 19.477 19.653 15.889 21.173C14.692 21.68 13.379 21.96 12 21.96C6.486 21.96 2 17.474 2 11.96C2 6.44596 6.486 1.95996 12 1.95996ZM14.1693 13.6695L15.3613 15.3115C16.2183 14.4525 16.7503 13.2675 16.7503 11.9595C16.7503 11.7095 16.7143 11.4695 16.6753 11.2285L14.7633 11.8505C14.7638 11.868 14.7663 11.8851 14.7688 11.9022C14.7715 11.9211 14.7743 11.94 14.7743 11.9595C14.7743 12.6075 14.5423 13.1965 14.1693 13.6695ZM11.0423 14.5545L9.8623 16.1785C10.5073 16.5065 11.2273 16.7095 12.0003 16.7095C12.7723 16.7095 13.4923 16.5065 14.1373 16.1785L12.9583 14.5545C12.6583 14.6655 12.3383 14.7345 12.0003 14.7345C11.6623 14.7345 11.3413 14.6655 11.0423 14.5545ZM7.3243 11.2285C7.2863 11.4695 7.2503 11.7095 7.2503 11.9595C7.2503 13.2675 7.7813 14.4525 8.6383 15.3115L9.8313 13.6695C9.4583 13.1965 9.2253 12.6075 9.2253 11.9595C9.2253 11.94 9.22806 11.9211 9.23083 11.9022C9.23333 11.8851 9.23583 11.868 9.2363 11.8505L7.3243 11.2285ZM11.2503 9.30146V7.28546C9.7353 7.52846 8.4703 8.48546 7.7923 9.80446L9.6933 10.4215C10.0553 9.87946 10.6073 9.48246 11.2503 9.30146ZM12.0003 10.6855C11.2973 10.6855 10.7253 11.2565 10.7253 11.9595C10.7253 12.6635 11.2973 13.2345 12.0003 13.2345C12.7033 13.2345 13.2743 12.6635 13.2743 11.9595C13.2743 11.2565 12.7033 10.6855 12.0003 10.6855ZM14.3063 10.4215L16.2083 9.80446C15.5293 8.48546 14.2643 7.52846 12.7503 7.28546V9.30146C13.3923 9.48246 13.9443 9.87946 14.3063 10.4215ZM5.7503 11.9595C5.7503 8.51346 8.5533 5.70946 12.0003 5.70946C15.4463 5.70946 18.2503 8.51346 18.2503 11.9595C18.2503 15.4065 15.4463 18.2095 12.0003 18.2095C8.5533 18.2095 5.7503 15.4065 5.7503 11.9595Z" fill="black" fill-opacity="0.56"/>
</svg>
