<svg width="24" height="24" viewBox="0 0 24 24" fill="none" xmlns="http://www.w3.org/2000/svg">
<path fill-rule="evenodd" clip-rule="evenodd" d="M16.6077 5.6387C16.4127 5.4437 16.0957 5.4437 15.9007 5.6387C15.7057 5.8337 15.7057 6.1507 15.9007 6.3457L17.0727 7.5177C17.1707 7.6157 17.2977 7.6637 17.4257 7.6637C17.5537 7.6637 17.6817 7.6157 17.7797 7.5177L20.1077 5.1897C20.3027 4.9937 20.3027 4.6777 20.1077 4.4827C19.9127 4.2867 19.5957 4.2867 19.4007 4.4827L17.4257 6.4567L16.6077 5.6387ZM22.4937 6.0117C22.4937 8.4967 20.4787 10.5117 17.9937 10.5117C15.5077 10.5117 13.4937 8.4967 13.4937 6.0117C13.4937 3.5267 15.5077 1.5117 17.9937 1.5117C20.4787 1.5117 22.4937 3.5267 22.4937 6.0117ZM20.0678 15.1176H20.1078C20.2958 14.9346 20.3768 14.6666 20.3208 14.4096C20.2788 14.2576 20.1958 14.1186 20.0808 14.0096C20.0038 13.9316 19.9068 13.8766 19.7998 13.8496C19.6918 13.8166 19.5758 13.8166 19.4668 13.8496L18.8388 13.9696C17.8648 14.1026 16.8638 14.1966 15.8768 14.2766C15.4638 14.3116 15.1528 14.6646 15.1688 15.0776C15.2038 15.4636 15.5278 15.7596 15.9168 15.7586H15.9828C16.9978 15.6786 18.0118 15.5716 19.0658 15.4376L19.7078 15.3176L19.9208 15.2246L20.0678 15.1176ZM8.00178 15.7846H8.06778C8.48078 15.7846 8.81478 15.4506 8.81478 15.0376C8.81478 14.6246 8.48078 14.2896 8.06778 14.2896C7.08078 14.2096 6.07878 14.1166 5.14478 13.9966L4.47678 13.8626C4.36878 13.8286 4.25278 13.8286 4.14378 13.8626C4.03878 13.8996 3.94278 13.9586 3.86378 14.0366H3.90378C3.76578 14.1336 3.66778 14.2746 3.62378 14.4366C3.57878 14.6906 3.66978 14.9486 3.86378 15.1176L3.99678 15.2246L4.23678 15.3446L4.95778 15.4776C5.95978 15.5976 6.98678 15.7046 8.00178 15.7846ZM23.0688 9.20063C23.3968 9.21863 23.5293 9.38063 23.7033 9.68463C23.7113 9.69963 23.7183 9.71363 23.7253 9.72863C23.9613 10.2206 23.7543 10.8106 23.2633 11.0466L21.8698 11.9136C21.9808 12.4186 22.0388 12.9326 22.0428 13.4496V17.8936C22.0488 17.9606 22.0488 18.0276 22.0428 18.0946V19.6156V20.9506C22.0518 21.0366 22.0518 21.1226 22.0428 21.2086C21.9708 21.8986 21.3548 22.3986 20.6658 22.3276C19.9758 22.2566 19.4748 21.6396 19.5468 20.9506V19.6156V18.9886C17.0238 19.2156 14.5148 19.3356 11.9788 19.3356C9.44278 19.3356 6.91978 19.2156 4.41078 18.9886V19.6156V20.9506C4.41078 21.6436 3.84878 22.2046 3.15578 22.2046C2.46278 22.2046 1.90078 21.6436 1.90078 20.9506V19.6156V18.1346C1.89378 18.0456 1.89378 17.9556 1.90078 17.8676V13.4226C1.90578 12.9066 1.96278 12.3916 2.07478 11.8876L0.512779 11.0196C0.041779 10.7556 -0.136221 10.1646 0.112779 9.68463C0.384779 9.22363 0.969779 9.05463 1.44778 9.29763L2.78178 10.0056V9.92563L4.98478 5.80063C5.58678 4.69663 6.74378 4.01063 8.00178 4.01263H12.3408C12.1198 4.63863 11.9928 5.30963 11.9938 6.01463H8.05378C7.50778 5.97863 6.98978 6.25863 6.71978 6.73563L4.83678 10.5126C8.03878 10.8846 11.2598 10.9856 14.4748 10.8646C15.4638 11.5826 16.6768 12.0116 17.9938 12.0116C20.1328 12.0116 22.0068 10.8876 23.0688 9.20063Z" fill="black" fill-opacity="0.56"/>
</svg>
