<svg width="24" height="24" viewBox="0 0 24 24" fill="none" xmlns="http://www.w3.org/2000/svg">
<path fill-rule="evenodd" clip-rule="evenodd" d="M15.417 13.9335L12.498 18.9945C15.951 18.7395 18.712 15.9705 18.955 12.5115C18.25 12.5055 17.443 12.4995 17.443 12.4995C17.169 12.4975 16.947 12.2735 16.947 11.9995C16.947 9.27153 14.727 7.05253 12 7.05253C11.726 7.05253 11.502 6.83053 11.5 6.55653L11.487 5.04453C9.535 5.18153 7.805 6.12453 6.618 7.53853L8.334 10.5075C8.915 9.04753 10.336 8.00853 12 8.00853C14.178 8.00853 15.95 9.78053 15.95 11.9585C15.95 12.6495 15.756 13.2905 15.443 13.8555C15.4384 13.8665 15.4357 13.8776 15.433 13.8886C15.4293 13.9039 15.4257 13.919 15.417 13.9335ZM9.55 11.9585C9.55 13.3095 10.649 14.4095 12 14.4095C13.351 14.4095 14.45 13.3095 14.45 11.9585C14.45 10.6075 13.351 9.50853 12 9.50853C10.649 9.50853 9.55 10.6075 9.55 11.9585ZM5.698 8.94553C5.241 9.87353 4.979 10.9155 4.979 12.0195C4.979 15.4805 7.508 18.3555 10.813 18.9135L12.58 15.8505C12.5645 15.8528 12.5491 15.8551 12.5336 15.8574C12.3589 15.8834 12.1828 15.9095 12 15.9095C10.56 15.9095 9.31 15.1255 8.619 13.9705C8.61428 13.9634 8.60798 13.9586 8.60171 13.9537C8.59472 13.9483 8.58775 13.943 8.583 13.9345L5.698 8.94553ZM11.479 2.51953C11.479 2.24353 11.703 2.01953 11.979 2.01953C17.493 2.01953 21.979 6.50553 21.979 12.0195C21.979 12.2965 21.756 12.5195 21.479 12.5195H20.954C20.692 17.2485 16.773 21.0195 11.979 21.0195C7.017 21.0195 2.979 16.9815 2.979 12.0195C2.979 7.22553 6.75 3.30653 11.479 3.04453V2.51953ZM11.2725 12.7064C10.8815 12.3154 10.8815 11.6834 11.2725 11.2924C11.6635 10.9014 12.2955 10.9014 12.6865 11.2924C13.0775 11.6834 13.0775 12.3154 12.6865 12.7064C12.2955 13.0974 11.6635 13.0974 11.2725 12.7064Z" fill="black" fill-opacity="0.56"/>
</svg>
