<svg width="24" height="24" viewBox="0 0 24 24" fill="none" xmlns="http://www.w3.org/2000/svg">
<path fill-rule="evenodd" clip-rule="evenodd" d="M3.90357 16.9972V15.4582L3.97557 15.4672C4.97957 15.5942 6.00157 15.6992 7.01057 15.7782C7.03058 15.7792 7.05057 15.7802 7.07057 15.7802C7.45857 15.7802 7.78657 15.4822 7.81757 15.0892C7.84958 14.6762 7.54157 14.3152 7.12857 14.2832C6.14157 14.2052 5.14458 14.1032 4.15357 13.9772L3.90357 13.9492V13.4682C3.90357 13.1302 3.94657 12.7922 4.00957 12.4592C6.66157 12.7932 9.33057 12.9602 12.0016 12.9602C14.6696 12.9602 17.3396 12.7922 19.9906 12.4592C20.0536 12.7932 20.0966 13.1302 20.0966 13.4682V13.9492L19.8296 13.9782C18.8496 14.1032 17.8536 14.2052 16.8676 14.2832C16.4546 14.3152 16.1456 14.6762 16.1776 15.0892C16.2096 15.4822 16.5376 15.7802 16.9246 15.7802C16.9446 15.7802 16.9656 15.7802 16.9846 15.7782C17.9946 15.6992 19.0146 15.5942 20.0076 15.4682L20.0966 15.4582V16.9962C14.7176 17.5332 9.28057 17.5332 3.90357 16.9972ZM6.75557 6.76216C6.99057 6.32116 7.49557 6.03516 8.04157 6.03516H15.9596C16.5056 6.03516 17.0096 6.32116 17.2466 6.76316L19.2546 10.5282C14.4366 11.0962 9.56157 11.0952 4.74557 10.5282L6.75557 6.76216ZM23.8746 9.70516C23.6046 9.22316 22.9936 9.05016 22.5136 9.31816L21.2466 10.0252C21.2326 9.99916 21.2236 9.97216 21.2106 9.94616L19.0106 5.82316C18.4246 4.72016 17.2556 4.03516 15.9596 4.03516H8.04158C6.74558 4.03516 5.57657 4.72016 4.99057 5.82216L2.78958 9.94716C2.77558 9.97216 2.76658 9.99916 2.75458 10.0242L1.48658 9.31816C1.00758 9.04916 0.395575 9.22216 0.126575 9.70516C-0.142425 10.1872 0.031575 10.7972 0.513575 11.0652L2.07757 11.9362C1.96957 12.4412 1.90357 12.9542 1.90357 13.4682V17.9052H1.91457C1.91457 17.9972 1.91457 18.0912 1.93858 18.1772V19.6872H1.93558V20.9392C1.93558 21.6302 2.49658 22.1902 3.18758 22.1902C3.87958 22.1902 4.43958 21.6302 4.43958 20.9392V19.6872H4.43857V19.0582C6.94957 19.2852 9.47157 19.4052 11.9956 19.4052C14.5196 19.4052 17.0446 19.2852 19.5566 19.0582V19.6872H19.5536V20.9392C19.5536 21.6302 20.1146 22.1902 20.8056 22.1902C21.4976 22.1902 22.0576 21.6302 22.0576 20.9392V19.6872H22.0566V18.1122C22.0716 18.0452 22.0756 17.9762 22.0756 17.9052H22.0966V13.4682C22.0966 12.9542 22.0306 12.4412 21.9236 11.9362L23.4866 11.0652C23.9686 10.7972 24.1426 10.1872 23.8746 9.70516Z" fill="black" fill-opacity="0.56"/>
</svg>
