<svg width="24" height="24" viewBox="0 0 24 24" fill="none" xmlns="http://www.w3.org/2000/svg">
<path fill-rule="evenodd" clip-rule="evenodd" d="M4 11.96C4 16.378 7.582 19.96 12 19.96C16.418 19.96 20 16.378 20 11.96C20 7.54196 16.418 3.95996 12 3.95996C7.582 3.95996 4 7.54196 4 11.96ZM2 11.96C2 6.44596 6.486 1.95996 12 1.95996C17.514 1.95996 22 6.44596 22 11.96C22 17.474 17.514 21.96 12 21.96C6.486 21.96 2 17.474 2 11.96ZM14.1686 13.669L15.0596 14.896C15.7926 14.132 16.2496 13.1 16.2496 11.96C16.2496 11.7993 16.2281 11.644 16.2066 11.4885C16.2018 11.4544 16.1971 11.4202 16.1926 11.386L14.7636 11.851C14.7641 11.8684 14.7665 11.8852 14.769 11.902C14.7718 11.9209 14.7746 11.9399 14.7746 11.96C14.7746 12.608 14.5416 13.197 14.1686 13.669ZM11.0416 14.554L10.1576 15.772C10.7166 16.044 11.3366 16.21 11.9996 16.21C12.6636 16.21 13.2836 16.044 13.8426 15.772L12.9576 14.554C12.6586 14.666 12.3376 14.735 11.9996 14.735C11.6626 14.735 11.3416 14.666 11.0416 14.554ZM7.79234 11.4971C7.77097 11.6497 7.7496 11.8022 7.7496 11.96C7.7496 13.1 8.2066 14.132 8.9406 14.896L9.8306 13.669C9.4576 13.197 9.2256 12.608 9.2256 11.96C9.2256 11.9399 9.22839 11.9209 9.23118 11.902C9.23366 11.8852 9.23613 11.8684 9.2366 11.851L7.8076 11.386C7.80272 11.4231 7.79753 11.4601 7.79234 11.4971ZM11.2496 9.30096V7.78596C9.9556 8.01796 8.8766 8.83896 8.2736 9.95996L9.6936 10.422C10.0556 9.87996 10.6076 9.48296 11.2496 9.30096ZM11.9996 10.685C11.2966 10.685 10.7256 11.257 10.7256 11.96C10.7256 12.663 11.2966 13.235 11.9996 13.235C12.7036 13.235 13.2746 12.663 13.2746 11.96C13.2746 11.257 12.7036 10.685 11.9996 10.685ZM14.3066 10.422L15.7266 9.95996C15.1226 8.83896 14.0436 8.01796 12.7496 7.78596V9.30096C13.3926 9.48296 13.9446 9.87996 14.3066 10.422ZM6.2496 11.96C6.2496 8.78996 8.8296 6.20996 11.9996 6.20996C15.1706 6.20996 17.7496 8.78996 17.7496 11.96C17.7496 15.13 15.1706 17.71 11.9996 17.71C8.8296 17.71 6.2496 15.13 6.2496 11.96Z" fill="black" fill-opacity="0.56"/>
</svg>
