<svg width="24" height="24" viewBox="0 0 24 24" fill="none" xmlns="http://www.w3.org/2000/svg">
<path fill-rule="evenodd" clip-rule="evenodd" d="M6.75376 6.76504C6.98975 6.32306 7.49574 6.03706 8.04173 6.03706H15.9585C16.5045 6.03706 17.0105 6.32306 17.2455 6.76504L19.2535 10.53C14.4366 11.0979 9.56169 11.0979 4.7458 10.53L6.75376 6.76504ZM20.0944 15.1308C20.0504 15.1728 20.0014 15.2088 19.9494 15.2408C19.8824 15.2778 19.8134 15.3138 19.7334 15.3298L19.0965 15.4538L19.0665 15.4598C18.0145 15.5958 16.9935 15.7008 15.9835 15.7798C15.9645 15.7818 15.9435 15.7818 15.9245 15.7818C15.5365 15.7818 15.2086 15.4838 15.1776 15.0908C15.1456 14.6779 15.4536 14.3169 15.8665 14.2849C16.8535 14.2069 17.8495 14.1049 18.8285 13.9799L19.4465 13.8579C19.5645 13.8329 19.6795 13.8439 19.7874 13.8779C19.7964 13.8809 19.8054 13.8869 19.8144 13.8899C19.9164 13.9269 20.0134 13.9819 20.0944 14.0579C20.2044 14.1619 20.2954 14.2899 20.3264 14.4499C20.3774 14.7129 20.2754 14.9609 20.0944 15.1308ZM3.90482 14.0529C3.98482 13.9789 4.07982 13.9249 4.18282 13.8889C4.19082 13.8869 4.19782 13.8809 4.20682 13.8789C4.31481 13.8459 4.42981 13.8349 4.54881 13.8579L5.21479 13.9889C6.14477 14.1049 7.14175 14.2069 8.12772 14.2849C8.54071 14.3169 8.84971 14.6779 8.81671 15.0908C8.78571 15.4838 8.45772 15.7818 8.06973 15.7818C8.05073 15.7818 8.02973 15.7808 8.01073 15.7798C7.00075 15.7008 5.97977 15.5958 4.9758 15.4688L4.25981 15.3298C4.18082 15.3138 4.11182 15.2778 4.04582 15.2408C3.99482 15.2098 3.94782 15.1758 3.90482 15.1358C3.72083 14.9649 3.61583 14.7149 3.66783 14.4499C3.69983 14.2869 3.79183 14.1569 3.90482 14.0529ZM23.8724 9.70698C23.6044 9.22499 22.9944 9.05199 22.5124 9.31998L21.2454 10.026C21.2324 10.001 21.2244 9.97297 21.2104 9.94797L19.0105 5.82407C18.4225 4.72209 17.2535 4.03711 15.9585 4.03711H8.04173C6.74676 4.03711 5.57778 4.72209 4.9898 5.82407L2.78885 9.94897C2.77485 9.97397 2.76685 10.001 2.75385 10.026L1.48588 9.31998C1.00689 9.05099 0.395906 9.22399 0.125913 9.70698C-0.142081 10.189 0.0309148 10.7989 0.513903 11.0669L2.07687 11.9379C1.97087 12.4429 1.90387 12.9549 1.90387 13.4699V17.9068H1.91387C1.91387 17.9988 1.91387 18.0928 1.93887 18.1788V19.6877H1.93587V20.9397C1.93587 21.6317 2.49586 22.1917 3.18784 22.1917C3.87882 22.1917 4.43981 21.6317 4.43981 20.9397V19.6877H4.43881V19.0598C6.94975 19.2867 9.47169 19.4067 11.9946 19.4067C14.5196 19.4067 17.0425 19.2857 19.5565 19.0588V19.6877H19.5535V20.9397C19.5535 21.6317 20.1134 22.1917 20.8054 22.1917C21.4964 22.1917 22.0574 21.6317 22.0574 20.9397V19.6877H22.0564V18.1138C22.0704 18.0468 22.0744 17.9768 22.0744 17.9068H22.0964V13.4699C22.0964 12.9559 22.0294 12.4439 21.9224 11.9389L23.4864 11.0669C23.9693 10.7979 24.1423 10.189 23.8724 9.70698Z" fill="black" fill-opacity="0.56"/>
</svg>
