<svg width="24" height="24" viewBox="0 0 24 24" fill="none" xmlns="http://www.w3.org/2000/svg">
<path fill-rule="evenodd" clip-rule="evenodd" d="M14.1934 16.96H8.19343C7.64043 16.96 7.19343 16.512 7.19343 15.96C7.19343 15.408 7.64043 14.96 8.19343 14.96H14.1934C14.7464 14.96 15.1934 15.408 15.1934 15.96C15.1934 16.512 14.7464 16.96 14.1934 16.96ZM8.00043 10.96H11.0004C11.5524 10.96 12.0004 11.408 12.0004 11.96C12.0004 12.512 11.5524 12.96 11.0004 12.96H8.00043C7.44743 12.96 7.00043 12.512 7.00043 11.96C7.00043 11.408 7.44743 10.96 8.00043 10.96ZM18.0004 3.00098H6.00043C4.34543 3.00098 3.00043 4.34598 3.00043 6.00098V18.001C3.00043 19.655 4.34543 21.001 6.00043 21.001H18.0004C19.6544 21.001 21.0004 19.655 21.0004 18.001V6.00098C21.0004 4.34598 19.6544 3.00098 18.0004 3.00098Z" fill="black" fill-opacity="0.56"/>
</svg>
