<svg width="24" height="24" viewBox="0 0 24 24" fill="none" xmlns="http://www.w3.org/2000/svg">
<path fill-rule="evenodd" clip-rule="evenodd" d="M18.5289 11.3361C18.9949 11.3361 19.3999 11.0141 19.5039 10.5601L19.8739 8.94809C19.9459 8.63509 19.7079 8.33609 19.3869 8.33609H8.0579L8.7459 11.3361H18.5289ZM7.5989 6.33609H20.0149C20.6269 6.33609 21.1969 6.61109 21.5789 7.08909C21.9599 7.56809 22.1009 8.18509 21.9639 8.78309L21.4529 11.0071C21.1409 12.3701 19.9269 13.3361 18.5279 13.3361H9.2049L9.4849 14.2266C9.5899 14.6816 9.9939 15.0036 10.4609 15.0036H19.6969C20.2499 15.0036 20.6969 15.4516 20.6969 16.0036C20.6969 16.5556 20.2499 17.0036 19.6969 17.0036H10.4609C9.0629 17.0036 7.8489 16.0376 7.5359 14.6736L5.2509 5.05109C5.1989 4.82409 4.9969 4.66309 4.7639 4.66309H2.9809C2.4279 4.66309 1.9809 4.21509 1.9809 3.66309C1.9809 3.11109 2.4279 2.66309 2.9809 2.66309H5.1619C6.0949 2.66309 6.9029 3.30709 7.1109 4.21609L7.5989 6.33609ZM10.8389 18.3316C10.0109 18.3316 9.3389 19.0036 9.3389 19.8316C9.3389 20.6606 10.0109 21.3316 10.8389 21.3316C11.6679 21.3316 12.3389 20.6606 12.3389 19.8316C12.3389 19.0036 11.6679 18.3316 10.8389 18.3316ZM18.1973 18.336C17.3693 18.336 16.6973 19.007 16.6973 19.836C16.6973 20.665 17.3693 21.336 18.1973 21.336C19.0263 21.336 19.6973 20.665 19.6973 19.836C19.6973 19.007 19.0263 18.336 18.1973 18.336Z" fill="black" fill-opacity="0.56"/>
</svg>
