<svg width="24" height="24" viewBox="0 0 24 24" fill="none" xmlns="http://www.w3.org/2000/svg">
<path fill-rule="evenodd" clip-rule="evenodd" d="M17 15.96C17 16.512 16.553 16.96 16 16.96C15.447 16.96 15 16.512 15 15.96V7.95998C15 7.40798 15.447 6.95998 16 6.95998C16.553 6.95998 17 7.40798 17 7.95998V15.96ZM12 10.96C11.447 10.96 11 10.512 11 9.95998C11 9.40798 11.447 8.95998 12 8.95998C12.553 8.95998 13 9.40798 13 9.95998C13 10.512 12.553 10.96 12 10.96ZM13 15.96C13 16.512 12.553 16.96 12 16.96C11.447 16.96 11 16.512 11 15.96V13.96C11 13.408 11.447 12.96 12 12.96C12.553 12.96 13 13.408 13 13.96V15.96ZM9 15.96C9 16.512 8.553 16.96 8 16.96C7.447 16.96 7 16.512 7 15.96V11.96C7 11.408 7.447 10.96 8 10.96C8.553 10.96 9 11.408 9 11.96V15.96ZM18 3.00098H6C4.346 3.00098 3 4.34598 3 6.00098V18.001C3 19.655 4.346 21.001 6 21.001H18C19.654 21.001 21 19.655 21 18.001V6.00098C21 4.34598 19.654 3.00098 18 3.00098Z" fill="black" fill-opacity="0.56"/>
</svg>
