<svg width="24" height="24" viewBox="0 0 24 24" fill="none" xmlns="http://www.w3.org/2000/svg">
<path fill-rule="evenodd" clip-rule="evenodd" d="M7.751 16.4648L7.358 17.8568L10.659 16.1838C10.8 16.1128 10.954 16.0758 11.111 16.0758H13.777C16.657 16.0758 19 13.7328 19 10.8538C19 7.97384 16.657 5.63184 13.777 5.63184H10.223C7.343 5.63184 5 7.97384 5 10.8538C5 12.6238 5.89 14.2588 7.379 15.2298C7.784 15.4928 7.942 16.0088 7.755 16.4548C7.754 16.4588 7.752 16.4618 7.751 16.4648ZM6.48 20.3688C6.152 20.3688 5.826 20.2568 5.563 20.0388C5.119 19.6748 4.935 19.0828 5.091 18.5308L5.674 16.4598C3.987 15.0938 3 13.0478 3 10.8538C3 6.87084 6.24 3.63184 10.223 3.63184H13.777C17.76 3.63184 21 6.87084 21 10.8538C21 14.8358 17.76 18.0758 13.777 18.0758H11.351L7.134 20.2128C6.927 20.3168 6.703 20.3688 6.48 20.3688Z" fill="black" fill-opacity="0.56"/>
</svg>
