<svg width="24" height="24" viewBox="0 0 24 24" fill="none" xmlns="http://www.w3.org/2000/svg">
<path fill-rule="evenodd" clip-rule="evenodd" d="M12.7969 9.5591C13.1879 9.1681 13.8199 9.1681 14.2109 9.5591C14.6019 9.9501 14.6019 10.5821 14.2109 10.9731L8.44889 16.7351C8.25389 16.9311 7.99789 17.0281 7.74189 17.0281C7.48589 17.0281 7.23089 16.9311 7.03489 16.7351L4.13389 13.8341C3.74289 13.4441 3.74289 12.8111 4.13389 12.4201C4.52389 12.0301 5.15689 12.0301 5.54789 12.4201L7.74189 14.6141L12.7969 9.5591ZM18.4522 9.5591C18.8432 9.1681 19.4752 9.1681 19.8662 9.5591C20.2572 9.9501 20.2572 10.5821 19.8662 10.9731L14.1032 16.7351C13.9082 16.9311 13.6522 17.0281 13.3962 17.0281C13.1402 17.0281 12.8852 16.9311 12.6892 16.7351C12.2992 16.3451 12.2992 15.7121 12.6892 15.3211L18.4522 9.5591Z" fill="black" fill-opacity="0.56"/>
</svg>
