<svg width="24" height="24" viewBox="0 0 24 24" fill="none" xmlns="http://www.w3.org/2000/svg">
<path fill-rule="evenodd" clip-rule="evenodd" d="M17.1846 9.97396L11.4226 15.736C11.2276 15.932 10.9716 16.029 10.7156 16.029C10.4596 16.029 10.2046 15.932 10.0086 15.736L7.10757 12.836C6.71657 12.446 6.71657 11.812 7.10757 11.422C7.49757 11.031 8.13057 11.031 8.52157 11.422L10.7156 13.615L15.7706 8.55996C16.1616 8.16896 16.7936 8.16896 17.1846 8.55996C17.5756 8.95096 17.5756 9.58296 17.1846 9.97396ZM11.9996 0.959961C5.92457 0.959961 0.999573 5.88496 0.999573 11.96C0.999573 18.035 5.92457 22.96 11.9996 22.96C18.0756 22.96 22.9996 18.035 22.9996 11.96C22.9996 5.88496 18.0756 0.959961 11.9996 0.959961Z" fill="black" fill-opacity="0.56"/>
</svg>
