<svg width="24" height="24" viewBox="0 0 24 24" fill="none" xmlns="http://www.w3.org/2000/svg">
<path fill-rule="evenodd" clip-rule="evenodd" d="M13.3945 12L18.3435 7.05001C18.7345 6.66001 18.7345 6.02701 18.3435 5.63601C17.9535 5.24601 17.3205 5.24601 16.9295 5.63601L11.9805 10.586L7.03049 5.63601C6.63949 5.24601 6.00649 5.24601 5.61649 5.63601C5.22549 6.02701 5.22549 6.66001 5.61649 7.05001L10.5665 12L5.61649 16.95C5.22549 17.34 5.22549 17.973 5.61649 18.364C5.81149 18.559 6.06749 18.657 6.32349 18.657C6.57949 18.657 6.83449 18.559 7.03049 18.364L11.9805 13.414L16.9295 18.364C17.1245 18.559 17.3805 18.657 17.6365 18.657C17.8925 18.657 18.1485 18.559 18.3435 18.364C18.7345 17.973 18.7345 17.34 18.3435 16.95L13.3945 12Z" fill="black" fill-opacity="0.56"/>
</svg>
