<svg width="24" height="24" viewBox="0 0 24 24" fill="none" xmlns="http://www.w3.org/2000/svg">
<path d="M7.99998 17.5805C7.73998 17.5805 7.48998 17.4805 7.28998 17.2905L2.70998 12.7105C2.31998 12.3205 2.31998 11.6905 2.70998 11.3005L7.29998 6.71047C7.68998 6.32047 8.31998 6.32047 8.70998 6.71047C9.09998 7.10047 9.09998 7.73047 8.70998 8.12047L4.83998 12.0005L8.70998 15.8705C9.09998 16.2605 9.09998 16.8905 8.70998 17.2805C8.51998 17.4805 8.25998 17.5805 7.99998 17.5805Z" fill="black" fill-opacity="0.56"/>
<path d="M16 17.5802C15.74 17.5802 15.49 17.4802 15.29 17.2902C14.9 16.9002 14.9 16.2702 15.29 15.8802L19.17 12.0002L15.3 8.13023C14.91 7.74023 14.91 7.11023 15.3 6.72023C15.69 6.33023 16.32 6.33023 16.71 6.72023L21.29 11.3002C21.68 11.6902 21.68 12.3202 21.29 12.7102L16.71 17.2902C16.51 17.4802 16.25 17.5802 16 17.5802Z" fill="black" fill-opacity="0.56"/>
</svg>
