<svg width="24" height="24" viewBox="0 0 24 24" fill="none" xmlns="http://www.w3.org/2000/svg">
<path fill-rule="evenodd" clip-rule="evenodd" d="M20 14C20 14.551 19.552 15 19 15H17V10C17 8.34602 15.654 7.00002 14 7.00002H9V4.99902C9 4.44802 9.448 3.99902 10 3.99902H19C19.552 3.99902 20 4.44802 20 4.99902V14ZM15 19C15 19.551 14.552 20 14 20H5C4.448 20 4 19.551 4 19V10C4 9.44902 4.448 9.00002 5 9.00002H14C14.552 9.00002 15 9.44902 15 10V19ZM19 1.99902H10C8.346 1.99902 7 3.34502 7 4.99902V7.00002H5C3.346 7.00002 2 8.34602 2 10V19C2 20.654 3.346 22 5 22H14C15.654 22 17 20.654 17 19V17H19C20.654 17 22 15.654 22 14V4.99902C22 3.34502 20.654 1.99902 19 1.99902Z" fill="black" fill-opacity="0.56"/>
</svg>
