<svg width="24" height="24" viewBox="0 0 24 24" fill="none" xmlns="http://www.w3.org/2000/svg">
<path d="M22.3 17.67L21.39 9.45C21.29 8.53 20.93 7.66 20.36 6.93C19.41 5.7 17.97 5 16.42 5H7.58002C6.03002 5 4.59002 5.7 3.63002 6.93C3.06002 7.66 2.71002 8.53 2.61002 9.45L1.70002 17.67C1.60002 18.51 1.88002 19.36 2.44002 20C3.00002 20.64 3.82002 21 4.68002 21H4.79002C6.05002 21 7.18002 20.2 7.61002 19.02L8.64002 16.17C10.85 16.6 13.14 16.6 15.36 16.17L16.39 19.02C16.82 20.2 17.95 21 19.21 21H19.32C20.17 21 20.99 20.64 21.56 20C22.13 19.36 22.4 18.51 22.3 17.67ZM20.31 17.89C20.34 18.18 20.25 18.45 20.06 18.67C19.87 18.88 19.61 19 19.32 19H19.21C18.79 19 18.41 18.73 18.27 18.34L16.94 14.66C16.79 14.26 16.41 14 16 14C15.92 14 15.84 14.01 15.76 14.03C13.3 14.65 10.7 14.65 8.24002 14.03C7.74002 13.91 7.23002 14.18 7.06002 14.66L5.73002 18.34C5.59002 18.73 5.21002 19 4.79002 19H4.68002C4.39002 19 4.13002 18.88 3.93002 18.67C3.74002 18.46 3.65002 18.18 3.68002 17.89L4.60002 9.67C4.66002 9.12 4.87002 8.59 5.21002 8.16C5.79002 7.42 6.65002 7 7.58002 7H16.42C17.35 7 18.21 7.42 18.79 8.16C19.13 8.6 19.34 9.12 19.4 9.67L20.31 17.89Z" fill="black" fill-opacity="0.56"/>
<path d="M10 10H9.00002V9C9.00002 8.72 8.78002 8.5 8.50002 8.5C8.22002 8.5 8.00002 8.72 8.00002 9V10H7.00002C6.72002 10 6.50002 10.22 6.50002 10.5C6.50002 10.78 6.72002 11 7.00002 11H8.00002V12C8.00002 12.28 8.22002 12.5 8.50002 12.5C8.78002 12.5 9.00002 12.28 9.00002 12V11H10C10.28 11 10.5 10.78 10.5 10.5C10.5 10.22 10.28 10 10 10Z" fill="black" fill-opacity="0.56"/>
<path d="M15 10C15.5523 10 16 9.55228 16 9C16 8.44772 15.5523 8 15 8C14.4477 8 14 8.44772 14 9C14 9.55228 14.4477 10 15 10Z" fill="black" fill-opacity="0.56"/>
<path d="M17 13C17.5523 13 18 12.5523 18 12C18 11.4477 17.5523 11 17 11C16.4477 11 16 11.4477 16 12C16 12.5523 16.4477 13 17 13Z" fill="black" fill-opacity="0.56"/>
</svg>
