<svg width="24" height="24" viewBox="0 0 24 24" fill="none" xmlns="http://www.w3.org/2000/svg">
<path fill-rule="evenodd" clip-rule="evenodd" d="M13.8818 2.96875H10.1178C6.19382 2.96875 2.99982 6.16175 2.99982 10.0868C2.99982 13.7657 5.90782 16.7778 9.54582 16.9458V19.9487C9.54582 20.3177 9.74882 20.6567 10.0728 20.8307C10.2218 20.9097 10.3838 20.9487 10.5458 20.9487C10.7388 20.9487 10.9328 20.8927 11.0998 20.7817C11.8098 20.3097 12.5208 19.8417 13.2328 19.3727C14.4238 18.5867 15.6148 17.8018 16.7978 17.0028C19.6258 15.0918 20.9998 12.8288 20.9998 10.0868C20.9998 6.16175 17.8068 2.96875 13.8818 2.96875Z" fill="black" fill-opacity="0.56"/>
</svg>
