<svg width="24" height="24" viewBox="0 0 24 24" fill="none" xmlns="http://www.w3.org/2000/svg">
<path fill-rule="evenodd" clip-rule="evenodd" d="M11.618 13.8952C11.495 13.8442 11.385 13.7712 11.292 13.6782L8.29299 10.6792C7.90199 10.2882 7.90199 9.65623 8.29299 9.26523C8.68399 8.87423 9.31599 8.87423 9.70699 9.26523L11 10.5582V3.97223C11 3.42023 11.447 2.97223 12 2.97223C12.553 2.97223 13 3.42023 13 3.97223V10.5582L14.293 9.26523C14.684 8.87423 15.316 8.87423 15.707 9.26523C16.098 9.65623 16.098 10.2882 15.707 10.6792L12.708 13.6782C12.615 13.7712 12.505 13.8442 12.382 13.8952C12.26 13.9462 12.13 13.9722 12 13.9722C11.87 13.9722 11.74 13.9452 11.618 13.8952ZM19.001 13.0005C19.554 13.0005 20.002 13.4485 20.002 14.0015V15.0025H20V17.0005C20 18.6545 18.654 20.0005 17 20.0005H6.99999C5.34599 20.0005 3.99999 18.6545 3.99999 17.0005V15.0025H3.99799V14.0015C3.99799 13.4485 4.44599 13.0005 4.99899 13.0005C5.55299 13.0005 6.00099 13.4485 6.00099 14.0015V15.0025H5.99999V17.0005C5.99999 17.5515 6.44799 18.0005 6.99999 18.0005H17C17.552 18.0005 18 17.5515 18 17.0005V15.0025H17.999V14.0015C17.999 13.4485 18.447 13.0005 19.001 13.0005Z" fill="black" fill-opacity="0.56"/>
</svg>
