<svg width="24" height="24" viewBox="0 0 24 24" fill="none" xmlns="http://www.w3.org/2000/svg">
<path fill-rule="evenodd" clip-rule="evenodd" d="M14.2305 12.7604L11.5765 17.3584C11.5255 17.4454 11.4315 17.4994 11.3315 17.4994C11.1585 17.4994 11.0255 17.3474 11.0495 17.1764L11.4965 13.9994H10.2425C9.85149 13.9994 9.60749 13.5774 9.80249 13.2394L12.4615 8.6324C12.5095 8.5504 12.5975 8.4994 12.6925 8.4994C12.8545 8.4994 12.9785 8.6424 12.9565 8.8024L12.5015 11.9994H13.7925C14.1815 11.9994 14.4255 12.4224 14.2305 12.7604ZM18.2235 10.8014C16.6025 6.9574 12.9055 2.7634 12.7485 2.5864C12.3695 2.1574 11.6305 2.1574 11.2515 2.5864C11.0935 2.7644 7.37349 6.9864 5.79549 10.7624C5.27549 11.7604 5.00049 12.8794 5.00049 13.9994C5.00049 17.8594 8.14049 20.9994 12.0005 20.9994C15.8595 20.9994 19.0005 17.8594 19.0005 13.9994C19.0005 12.8934 18.7315 11.7884 18.2235 10.8014Z" fill="black" fill-opacity="0.56"/>
</svg>
