<svg width="24" height="24" viewBox="0 0 24 24" fill="none" xmlns="http://www.w3.org/2000/svg">
<path fill-rule="evenodd" clip-rule="evenodd" d="M7.05772 17.5512C7.62372 18.1172 8.37772 18.4292 9.17872 18.4292C9.98072 18.4292 10.7337 18.1172 11.3007 17.5512L13.6907 15.1602L8.81972 10.2892L5.01572 14.0942C4.62472 14.4842 4.62472 15.1182 5.01572 15.5082L7.05772 17.5512ZM14.7807 4.74316C14.6257 4.74316 14.3277 4.78116 14.0737 5.03616L10.2337 8.87516L15.1047 13.7462L19.6517 9.20016L15.4877 5.03616C15.2327 4.78116 14.9357 4.74316 14.7807 4.74316ZM13.2497 18.4292H16.1797C16.7327 18.4292 17.1797 18.8772 17.1797 19.4292C17.1797 19.9812 16.7327 20.4292 16.1797 20.4292H9.18672H9.18472H9.17872C7.89972 20.4292 6.61972 19.9412 5.64372 18.9652L3.60172 16.9222C2.42972 15.7512 2.42972 13.8512 3.60172 12.6792L12.6587 3.62116C13.2447 3.03616 14.0127 2.74316 14.7807 2.74316C15.5477 2.74316 16.3167 3.03616 16.9017 3.62116L21.0657 7.78516C21.8467 8.56716 21.8467 9.83316 21.0657 10.6142L13.2497 18.4292ZM19.123 19.4288C19.123 18.7378 19.684 18.1768 20.375 18.1768C21.066 18.1768 21.627 18.7378 21.627 19.4288C21.627 20.1198 21.066 20.6798 20.375 20.6798C19.684 20.6798 19.123 20.1198 19.123 19.4288Z" fill="black" fill-opacity="0.56"/>
</svg>
