<svg width="24" height="24" viewBox="0 0 24 24" fill="none" xmlns="http://www.w3.org/2000/svg">
<path fill-rule="evenodd" clip-rule="evenodd" d="M9.70699 7.70697C9.51199 7.90197 9.25599 7.99997 8.99999 7.99997C8.74399 7.99997 8.48799 7.90197 8.29299 7.70697C7.90199 7.31597 7.90199 6.68397 8.29299 6.29297L11.292 3.29397C11.385 3.20097 11.495 3.12797 11.618 3.07697C11.862 2.97597 12.138 2.97597 12.382 3.07697C12.505 3.12797 12.615 3.20097 12.708 3.29397L15.707 6.29297C16.098 6.68397 16.098 7.31597 15.707 7.70697C15.512 7.90197 15.256 7.99997 15 7.99997C14.744 7.99997 14.488 7.90197 14.293 7.70697L13 6.41397V15C13 15.552 12.553 16 12 16C11.447 16 11 15.552 11 15V6.41397L9.70699 7.70697ZM19.001 10.0005C19.554 10.0005 20.002 10.4485 20.002 11.0015V12.0025H20V19.0005C20 20.6545 18.654 22.0005 17 22.0005H6.99999C5.34599 22.0005 3.99999 20.6545 3.99999 19.0005V12.0025H3.99799V11.0015C3.99799 10.4485 4.44599 10.0005 4.99899 10.0005C5.55299 10.0005 6.00099 10.4485 6.00099 11.0015V12.0025H5.99999V19.0005C5.99999 19.5515 6.44799 20.0005 6.99999 20.0005H17C17.552 20.0005 18 19.5515 18 19.0005V12.0025H17.999V11.0015C17.999 10.4485 18.447 10.0005 19.001 10.0005Z" fill="black" fill-opacity="0.56"/>
</svg>
