<svg width="24" height="24" viewBox="0 0 24 24" fill="none" xmlns="http://www.w3.org/2000/svg">
<path fill-rule="evenodd" clip-rule="evenodd" d="M10.5939 16.7226C10.5939 16.7179 10.6229 16.653 10.6808 16.5278C10.7388 16.4026 10.8223 16.2379 10.9313 16.0339C11.0403 15.8298 11.1759 15.5921 11.3382 15.3208C11.5006 15.0495 11.6861 14.7643 11.8948 14.4652C12.1034 14.1661 12.3342 13.8611 12.5869 13.5504C12.8397 13.2397 13.1133 12.9405 13.4078 12.653C13.7023 12.3655 14.0165 12.0977 14.3504 11.8495C14.6843 11.6014 15.0345 11.3916 15.4008 11.22L15.9226 10.9765L15.2826 9.45301C15.06 9.51794 14.8304 9.58171 14.5939 9.64432C14.3574 9.70693 14.122 9.76258 13.8878 9.81127C13.6536 9.85997 13.431 9.89707 13.22 9.92258C13.009 9.94809 12.8153 9.96084 12.6391 9.96084H12.5487C12.391 9.96084 12.2345 9.94693 12.0791 9.9191C11.9237 9.89127 11.7834 9.85417 11.6582 9.8078C11.533 9.76142 11.4275 9.70924 11.3417 9.65127C11.2559 9.5933 11.2037 9.53417 11.1852 9.47388C11.1574 9.38113 11.1434 9.28606 11.1434 9.18867V9.1191C11.1481 8.99852 11.1713 8.88142 11.213 8.7678C11.2548 8.65417 11.3127 8.54867 11.3869 8.45127C11.4611 8.35388 11.5516 8.2704 11.6582 8.20084C11.8577 8.07098 12.0629 7.96896 12.2739 7.89475C12.4849 7.82055 12.6495 7.78113 12.7678 7.77649C12.8861 7.77185 12.9521 7.76953 12.9661 7.76953C13.1748 7.76953 13.3881 7.802 13.6061 7.86693C13.8379 7.94113 14.0768 8.06171 14.3226 8.22867L15.213 6.70519C15.0368 6.6078 14.8629 6.51968 14.6913 6.44084C14.5197 6.362 14.3388 6.29475 14.1487 6.2391C13.9585 6.18345 13.7614 6.14171 13.5574 6.11388C13.3533 6.08606 13.1377 6.07214 12.9104 6.07214H12.7991C12.3863 6.07678 11.9875 6.1591 11.6026 6.3191C11.2177 6.4791 10.8779 6.69823 10.5834 6.97649C10.289 7.25475 10.0536 7.58055 9.87736 7.95388C9.70113 8.32722 9.61302 8.72954 9.61302 9.16084C9.61302 9.49475 9.67446 9.80664 9.79736 10.0965C9.92026 10.3863 10.0861 10.6403 10.2948 10.8582C10.5034 11.0762 10.7481 11.249 11.0287 11.3765C11.3092 11.504 11.6072 11.5701 11.9226 11.5748C11.649 11.7788 11.3974 12.0292 11.1678 12.3261C10.9382 12.6229 10.6982 12.9661 10.4478 13.3556C10.2298 13.6942 10.0292 14.0292 9.84606 14.3608C9.66287 14.6924 9.50519 14.9916 9.37302 15.2582C9.24084 15.5249 9.13649 15.7429 9.05997 15.9121C8.98345 16.0814 8.94287 16.1753 8.93823 16.1939L10.5939 16.7226Z" fill="black" fill-opacity="0.56"/>
</svg>
