<svg width="24" height="24" viewBox="0 0 24 24" fill="none" xmlns="http://www.w3.org/2000/svg">
<path fill-rule="evenodd" clip-rule="evenodd" d="M11.5983 16.8409C11.5983 16.4142 11.5948 15.9493 11.5878 15.4461C11.5809 14.9429 11.567 14.4304 11.5461 13.9087C11.5252 13.3869 11.4974 12.8722 11.4626 12.3643C11.4278 11.8565 11.3826 11.3846 11.327 10.9487V10.9069C11.5078 10.9533 11.7212 10.9765 11.967 10.9765C12.1525 10.9765 12.3217 10.958 12.4748 10.9209C12.6278 10.8838 12.7704 10.8293 12.9026 10.7574C13.0348 10.6855 13.1588 10.5974 13.2748 10.493C13.3907 10.3887 13.5067 10.2716 13.6226 10.1417C13.7478 10.2809 13.8823 10.3968 14.0261 10.4895C14.1699 10.5823 14.3148 10.6553 14.4609 10.7087C14.607 10.762 14.7496 10.7991 14.8887 10.82C15.0278 10.8409 15.1554 10.8513 15.2713 10.8513C15.5959 10.8513 15.8754 10.7875 16.1096 10.66C16.3438 10.5324 16.5583 10.3574 16.753 10.1348C16.9525 9.88433 17.1078 9.5968 17.2191 9.27216C17.3304 8.94752 17.3861 8.54868 17.3861 8.07564C17.3861 7.94114 17.3814 7.81477 17.3722 7.69651C17.3629 7.57825 17.3501 7.45998 17.3339 7.34172C17.3177 7.22346 17.298 7.09825 17.2748 6.96607C17.2516 6.8339 17.2261 6.68665 17.1983 6.52433L17.1287 6.14172L15.3965 6.46172C15.429 6.5823 15.4649 6.72027 15.5043 6.87564C15.5438 7.031 15.5797 7.191 15.6122 7.35564C15.6446 7.52027 15.6713 7.68491 15.6922 7.84955C15.713 8.01419 15.7235 8.16607 15.7235 8.3052C15.7235 8.52781 15.691 8.71448 15.6261 8.8652C15.5612 9.01593 15.4429 9.09129 15.2713 9.09129C15.2528 9.09129 15.2168 9.08781 15.1635 9.08085C15.1101 9.0739 15.051 9.05303 14.9861 9.01825C14.9212 8.98346 14.8551 8.92665 14.7878 8.84781C14.7206 8.76897 14.6638 8.65767 14.6174 8.5139C14.571 8.33303 14.5281 8.16955 14.4887 8.02346C14.4493 7.87738 14.4145 7.72897 14.3843 7.57825C14.3542 7.42752 14.3299 7.26868 14.3113 7.10172C14.2928 6.93477 14.2812 6.7423 14.2765 6.52433L12.607 6.73998C12.6116 6.78172 12.6174 6.84549 12.6243 6.93129C12.6313 7.01709 12.6371 7.10868 12.6417 7.20607C12.6464 7.30346 12.6499 7.39622 12.6522 7.48433C12.6545 7.57245 12.6557 7.63738 12.6557 7.67911C12.6464 7.86926 12.6348 8.05709 12.6209 8.24259C12.607 8.4281 12.578 8.5939 12.5339 8.73998C12.4899 8.88607 12.4238 9.00317 12.3357 9.09129C12.2475 9.1794 12.1246 9.22346 11.967 9.22346C11.8371 9.22346 11.7223 9.20027 11.6226 9.1539C11.5229 9.10752 11.4278 9.03216 11.3374 8.92781C11.247 8.82346 11.1577 8.69013 11.0696 8.52781C10.9814 8.36549 10.8841 8.16839 10.7774 7.93651C10.7403 7.84375 10.702 7.74984 10.6626 7.65477C10.6232 7.55969 10.5826 7.46578 10.5409 7.37303C10.4713 7.21071 10.3901 7.03796 10.2974 6.85477C10.2046 6.67158 10.1096 6.49883 10.0122 6.33651L8.42609 7.26172C8.64406 7.63274 8.83072 8.03622 8.98609 8.47216C9.14145 8.9081 9.27246 9.36143 9.37913 9.83216C9.4858 10.3029 9.57043 10.784 9.63304 11.2756C9.69565 11.7672 9.74435 12.2553 9.77913 12.74C9.81391 13.2246 9.83594 13.6965 9.84522 14.1556C9.85449 14.6148 9.85913 15.0484 9.85913 15.4565V15.7765C9.85913 15.8971 9.85797 16.0211 9.85565 16.1487C9.85333 16.2762 9.84985 16.4003 9.84522 16.5209C9.84058 16.6414 9.83594 16.7481 9.8313 16.8409H11.5983Z" fill="black" fill-opacity="0.56"/>
</svg>
