<svg width="24" height="24" viewBox="0 0 24 24" fill="none" xmlns="http://www.w3.org/2000/svg">
<path fill-rule="evenodd" clip-rule="evenodd" d="M12.6 16.8479C12.6 16.4165 12.5989 15.9516 12.5965 15.4531C12.5942 14.9545 12.5838 14.4444 12.5652 13.9226C12.5467 13.4009 12.52 12.878 12.4852 12.3539C12.4505 11.8299 12.4006 11.3244 12.3357 10.8374C12.6186 10.907 12.9247 10.9418 13.2539 10.9418C13.676 10.9418 14.0632 10.8652 14.4157 10.7122C14.7681 10.5592 15.0696 10.3296 15.32 10.0235C15.6307 9.6293 15.8452 9.22351 15.9635 8.80611C16.0818 8.38872 16.1409 7.96206 16.1409 7.52611C16.1409 7.30351 16.1281 7.0693 16.1026 6.82351C16.0771 6.57771 16.0458 6.32264 16.0087 6.05829L14.2905 6.36438C14.3183 6.54525 14.3392 6.70525 14.3531 6.84438C14.367 6.98351 14.3739 7.14582 14.3739 7.33133C14.3739 7.54003 14.3693 7.75336 14.36 7.97133C14.3507 8.1893 14.3125 8.38756 14.2452 8.56611C14.178 8.74467 14.0678 8.89307 13.9148 9.01133C13.7618 9.12959 13.5415 9.19104 13.2539 9.19568H13.2122C12.9989 9.19568 12.8157 9.16322 12.6626 9.09829C12.5003 9.03336 12.3577 8.93713 12.2348 8.80959C12.1119 8.68206 12.0018 8.52785 11.9044 8.34698C11.807 8.16611 11.7096 7.96206 11.6122 7.73481C11.5426 7.58177 11.4847 7.4438 11.4383 7.3209C11.3919 7.198 11.342 7.07742 11.2887 6.95916C11.2354 6.8409 11.1751 6.71684 11.1078 6.58698C11.0406 6.45713 10.956 6.30872 10.8539 6.14177L9.37915 7.08785C9.46727 7.23162 9.53799 7.35916 9.59132 7.47046C9.64466 7.58177 9.69219 7.68843 9.73393 7.79046C9.77567 7.89249 9.81625 7.99684 9.85567 8.10351C9.89509 8.21017 9.94263 8.33075 9.99828 8.46525C10.1838 8.9893 10.3322 9.57945 10.4435 10.2357C10.5548 10.8919 10.6394 11.5841 10.6974 12.3122C10.7554 13.0403 10.7936 13.7893 10.8122 14.5592C10.8307 15.329 10.84 16.0919 10.84 16.8479H12.6Z" fill="black" fill-opacity="0.56"/>
</svg>
