<svg width="24" height="24" viewBox="0 0 24 24" fill="none" xmlns="http://www.w3.org/2000/svg">
<path fill-rule="evenodd" clip-rule="evenodd" d="M16.3651 3.00349L14.0311 3.00049C11.4081 3.00049 9.71412 4.73849 9.71412 7.42949V9.47149H7.36712C7.16412 9.47149 7.00012 9.63649 7.00012 9.83949V12.7985C7.00012 13.0015 7.16412 13.1665 7.36712 13.1665H9.71412V20.6325C9.71412 20.8365 9.87812 21.0005 10.0811 21.0005H13.1431C13.3461 21.0005 13.5101 20.8365 13.5101 20.6325V13.1665H16.2541C16.4571 13.1665 16.6211 13.0015 16.6211 12.7985L16.6221 9.83949C16.6221 9.74249 16.5831 9.64849 16.5151 9.58049C16.4461 9.51049 16.3521 9.47149 16.2551 9.47149H13.5101V7.74149C13.5101 6.90849 13.7081 6.48649 14.7921 6.48649L16.3651 6.48549C16.5681 6.48549 16.7321 6.32149 16.7321 6.11849V3.37049C16.7321 3.16849 16.5681 3.00349 16.3651 3.00349Z" fill="black" fill-opacity="0.56"/>
</svg>
