<svg width="24" height="24" viewBox="0 0 24 24" fill="none" xmlns="http://www.w3.org/2000/svg">
<path fill-rule="evenodd" clip-rule="evenodd" d="M17.2979 9.72354H13.5049C12.9529 9.72354 12.5049 9.27554 12.5049 8.72354V4.93054C12.5049 4.48554 13.0439 4.26254 13.3589 4.57754L17.6519 8.86954C17.9669 9.18454 17.7429 9.72354 17.2979 9.72354ZM18.9059 7.72254L14.5039 3.32054C14.1299 2.94354 13.6109 2.72754 13.0819 2.72754H7.49988C5.84588 2.72754 4.49988 4.07354 4.49988 5.72754V18.2735C4.49988 19.9275 5.84588 21.2735 7.49988 21.2735H16.4999C18.1539 21.2735 19.4999 19.9275 19.4999 18.2735V9.14554C19.4999 8.61554 19.2839 8.09754 18.9059 7.72254Z" fill="black" fill-opacity="0.56"/>
</svg>
