<svg width="24" height="24" viewBox="0 0 24 24" fill="none" xmlns="http://www.w3.org/2000/svg">
<path fill-rule="evenodd" clip-rule="evenodd" d="M18 17.7325H9C8.448 17.7325 8 17.2835 8 16.7325V4.18652C8 3.63552 8.448 3.18652 9 3.18652H13V7.18652C13 8.28952 13.897 9.18652 15 9.18652H19V16.7325C19 17.2835 18.552 17.7325 18 17.7325ZM16 19.8995C16 20.3585 15.626 20.7325 15.167 20.7325H8C6.346 20.7325 5 19.3865 5 17.7325V7.02052C5 6.56052 5.374 6.18652 5.833 6.18652H6V16.7325C6 18.3865 7.346 19.7325 9 19.7325H16V19.8995ZM18.582 7.18652H15V3.60352L18.582 7.18652ZM20.406 6.18152L16.004 1.77952C15.63 1.40252 15.111 1.18652 14.582 1.18652H9C7.346 1.18652 6 2.53252 6 4.18652H5.833C4.271 4.18652 3 5.45752 3 7.02052V17.7325C3 20.4895 5.243 22.7325 8 22.7325H15.167C16.729 22.7325 18 21.4615 18 19.8995V19.7325C19.654 19.7325 21 18.3865 21 16.7325V7.60452C21 7.07452 20.784 6.55652 20.406 6.18152ZM10.2695 12.6871H13.2695C13.8225 12.6871 14.2695 12.2391 14.2695 11.6871C14.2695 11.1351 13.8225 10.6871 13.2695 10.6871H10.2695C9.7165 10.6871 9.2695 11.1351 9.2695 11.6871C9.2695 12.2391 9.7165 12.6871 10.2695 12.6871ZM10.4639 13.6871H16.4639C17.0169 13.6871 17.4639 14.1351 17.4639 14.6871C17.4639 15.2391 17.0169 15.6871 16.4639 15.6871H10.4639C9.9109 15.6871 9.4639 15.2391 9.4639 14.6871C9.4639 14.1351 9.9109 13.6871 10.4639 13.6871Z" fill="black" fill-opacity="0.56"/>
</svg>
