<svg width="24" height="24" viewBox="0 0 24 24" fill="none" xmlns="http://www.w3.org/2000/svg">
<path fill-rule="evenodd" clip-rule="evenodd" d="M16.5 19.2726H7.5C6.948 19.2726 6.5 18.8236 6.5 18.2726V5.72656C6.5 5.17556 6.948 4.72656 7.5 4.72656H11.5V8.72656C11.5 9.82956 12.397 10.7266 13.5 10.7266H17.5V18.2726C17.5 18.8236 17.052 19.2726 16.5 19.2726ZM17.082 8.72656H13.5V5.14356L17.082 8.72656ZM18.906 7.72156L14.504 3.31956C14.13 2.94256 13.611 2.72656 13.082 2.72656H7.5C5.846 2.72656 4.5 4.07256 4.5 5.72656V18.2726C4.5 19.9266 5.846 21.2726 7.5 21.2726H16.5C18.154 21.2726 19.5 19.9266 19.5 18.2726V9.14456C19.5 8.61456 19.284 8.09656 18.906 7.72156Z" fill="black" fill-opacity="0.56"/>
</svg>
