<svg width="24" height="24" viewBox="0 0 24 24" fill="none" xmlns="http://www.w3.org/2000/svg">
<path fill-rule="evenodd" clip-rule="evenodd" d="M6.50001 4.5C6.02333 4.5 5.61291 4.83646 5.51943 5.30388L5.01943 7.80388C4.91112 8.34544 5.26233 8.87227 5.80389 8.98058C6.34545 9.08889 6.87228 8.73768 6.98059 8.19612L7.31981 6.5H11V17H9.00001C8.44772 17 8.00001 17.4477 8.00001 18C8.00001 18.5523 8.44772 19 9.00001 19H11H13H15C15.5523 19 16 18.5523 16 18C16 17.4477 15.5523 17 15 17H13V6.5H16.6802L17.0194 8.19612C17.1278 8.73768 17.6546 9.08889 18.1961 8.98058C18.7377 8.87227 19.0889 8.34544 18.9806 7.80388L18.4806 5.30388C18.3871 4.83646 17.9767 4.5 17.5 4.5H13H11H6.50001Z" fill="black" fill-opacity="0.56"/>
</svg>
