<svg width="24" height="24" viewBox="0 0 24 24" fill="none" xmlns="http://www.w3.org/2000/svg">
<path fill-rule="evenodd" clip-rule="evenodd" d="M15.8594 12.7329C14.7844 12.7329 14.3304 14.1579 14.3304 15.0289C14.3304 15.8999 14.7844 17.3249 15.8594 17.3249C16.9334 17.3249 17.3874 15.8999 17.3874 15.0289C17.3874 14.1579 16.9334 12.7329 15.8594 12.7329ZM19.3004 15.0289C19.3004 13.1999 18.1884 11.5869 16.2384 11.5869C15.4504 11.5869 14.6964 11.7289 13.9044 11.8369C13.2844 11.9329 12.6634 11.9709 12.0254 11.9709C11.3924 11.9709 10.7714 11.9329 10.1464 11.8369C9.36737 11.7289 8.60437 11.5869 7.81337 11.5869C5.86337 11.5869 4.75137 13.1999 4.75137 15.0289C4.75137 18.6879 8.10037 19.2499 11.0174 19.2499H13.0254C15.9554 19.2499 19.3004 18.6909 19.3004 15.0289ZM21.9794 12.9249C21.9794 14.2539 21.8464 15.6619 21.2514 16.8829C19.6724 20.0749 15.3304 19.9999 12.2214 19.9999C9.06337 19.9999 4.46337 20.1119 2.82137 16.8829C2.21337 15.6749 1.97937 14.2539 1.97937 12.9249C1.97937 11.1789 2.55837 9.52888 3.70937 8.19088C3.49237 7.53288 3.38737 6.84088 3.38737 6.15788C3.38737 5.26188 3.59137 4.81288 3.99637 3.99988C5.88337 3.99988 7.09137 4.37488 8.52937 5.49988C9.73837 5.21188 10.9794 5.08288 12.2254 5.08288C13.3504 5.08288 14.4844 5.20388 15.5754 5.46588C16.9924 4.35388 18.2004 3.99988 20.0674 3.99988C20.4754 4.81288 20.6754 5.26188 20.6754 6.15788C20.6754 6.84088 20.5674 7.52088 20.3544 8.16688C21.5014 9.51688 21.9794 11.1789 21.9794 12.9249ZM9.73437 15.0289C9.73437 15.8999 9.27937 17.3249 8.20537 17.3249C7.13037 17.3249 6.67537 15.8999 6.67537 15.0289C6.67537 14.1579 7.13037 12.7329 8.20537 12.7329C9.27937 12.7329 9.73437 14.1579 9.73437 15.0289Z" fill="black" fill-opacity="0.56"/>
</svg>
