<svg width="24" height="24" viewBox="0 0 24 24" fill="none" xmlns="http://www.w3.org/2000/svg">
<path fill-rule="evenodd" clip-rule="evenodd" d="M14.5469 17.2671L19.1859 11.3591L19.9079 13.4241L14.5469 17.2671ZM15.5389 10.8321H18.3279L13.4069 17.1001L15.5389 10.8321ZM4.8149 11.3591L9.4529 17.2671L4.0919 13.4241L4.8149 11.3591ZM6.7539 5.81608L8.1199 9.83208H5.3489L6.7539 5.81608ZM10.5929 17.1001L5.6719 10.8321H8.4609L10.5929 17.1001ZM14.4829 10.8321L11.9999 18.1291L9.5179 10.8321H14.4829ZM17.2459 5.81608L18.6509 9.83208H15.8799L17.2459 5.81608ZM20.9759 13.4471L17.7109 4.11808C17.6409 3.91608 17.4569 3.79608 17.2369 3.78308C17.0239 3.78408 16.8349 3.92008 16.7659 4.12208L14.8229 9.83208H9.1769L7.2349 4.12208C7.1649 3.92008 6.9769 3.78408 6.7629 3.78308C6.5369 3.78408 6.3589 3.91608 6.2889 4.11808L3.0249 13.4471C2.9509 13.6561 3.0249 13.8891 3.2049 14.0181L11.6519 20.0741C11.6639 20.0851 11.6669 20.1001 11.6799 20.1101C11.6819 20.1111 11.6849 20.1111 11.6869 20.1121C11.6889 20.1141 11.6889 20.1171 11.6909 20.1181C11.7779 20.1841 11.8839 20.2171 11.9879 20.2171H12.0119C12.1159 20.2171 12.2219 20.1841 12.3099 20.1181C12.3119 20.1171 12.3119 20.1141 12.3139 20.1121C12.3159 20.1111 12.3179 20.1111 12.3199 20.1101C12.3329 20.1001 12.3359 20.0851 12.3479 20.0741L20.7949 14.0181C20.9759 13.8891 21.0489 13.6561 20.9759 13.4471Z" fill="black" fill-opacity="0.56"/>
</svg>
