<svg width="24" height="24" viewBox="0 0 24 24" fill="none" xmlns="http://www.w3.org/2000/svg">
<path fill-rule="evenodd" clip-rule="evenodd" d="M21.0866 2.93382C21.2616 2.41082 21.8236 2.12582 22.3516 2.30182C22.8746 2.47682 23.1586 3.04282 22.9836 3.56682L16.9836 21.5668C16.8436 21.9858 16.4546 22.2508 16.0356 22.2508C15.9306 22.2508 15.8246 22.2348 15.7186 22.1988C15.1956 22.0248 14.9126 21.4578 15.0866 20.9338L16.0706 17.9838H13.8716C13.5306 17.9838 13.2886 17.6498 13.3976 17.3258L13.7306 16.3258C13.7986 16.1218 13.9896 15.9838 14.2056 15.9838H16.7376L17.7376 12.9838H15.5386C15.1976 12.9838 14.9556 12.6498 15.0636 12.3258L15.3976 11.3258C15.4646 11.1218 15.6566 10.9838 15.8716 10.9838H18.4036L19.4036 7.98382H17.2056C16.8636 7.98382 16.6226 7.64982 16.7306 7.32582L17.0636 6.32582C17.1316 6.12182 17.3236 5.98382 17.5386 5.98382H20.0706L21.0866 2.93382ZM4.84471 12.9839L3.84471 15.9839H9.73771L10.7377 12.9839H4.84471ZM11.4037 10.9839L12.4037 7.98392H6.51071L5.51071 10.9839H11.4037ZM14.0867 2.93392C14.2617 2.41092 14.8237 2.12592 15.3517 2.30192C15.8747 2.47692 16.1577 3.04292 15.9837 3.56692L9.98371 21.5669C9.84371 21.9859 9.45371 22.2509 9.03471 22.2509C8.93071 22.2509 8.82371 22.2339 8.71871 22.1989C8.19571 22.0249 7.91171 21.4579 8.08671 20.9339L9.07071 17.9839H3.17771L1.98371 21.5669C1.84371 21.9859 1.45371 22.2509 1.03471 22.2509C0.930714 22.2509 0.823714 22.2339 0.718714 22.1989C0.195714 22.0249 -0.0882857 21.4579 0.0867143 20.9339L6.08671 2.93392C6.26071 2.41092 6.82271 2.12592 7.35171 2.30192C7.87471 2.47692 8.15771 3.04292 7.98371 3.56692L7.17771 5.98392H13.0707L14.0867 2.93392Z" fill="black" fill-opacity="0.56"/>
</svg>
