<svg width="24" height="24" viewBox="0 0 24 24" fill="none" xmlns="http://www.w3.org/2000/svg">
<path fill-rule="evenodd" clip-rule="evenodd" d="M6.30604 15L9.26734 4H14.7328L17.6941 15H6.30604ZM19.9651 15.74L16.4655 2.74C16.3485 2.304 15.9523 2 15.4991 2H8.5C8.0478 2 7.65163 2.304 7.53458 2.74L4.03403 15.74C3.953 16.041 4.01703 16.361 4.20611 16.608C4.39619 16.855 4.68932 17 5.00046 17H10.9991V20H7.99778C7.44554 20 6.99734 20.448 6.99734 21C6.99734 21.552 7.44554 22 7.99778 22H10.9991H13H16.0013C16.5546 22 17.0018 21.552 17.0018 21C17.0018 20.448 16.5546 20 16.0013 20H13V17H18.9996C19.3108 17 19.6039 16.855 19.793 16.608C19.9831 16.361 20.0461 16.041 19.9651 15.74Z" fill="black" fill-opacity="0.56"/>
</svg>
