<svg width="24" height="24" viewBox="0 0 24 24" fill="none" xmlns="http://www.w3.org/2000/svg">
<path d="M14.1 2.3197C13.1 2.0097 12.01 1.9197 10.89 2.0897C7.98002 2.5297 5.73002 4.6597 5.15002 7.5497C4.68002 9.8797 5.37002 12.0497 6.74002 13.6097C7.68002 14.6797 8.00002 16.0997 8.00002 17.5297C8.00002 18.3397 8.66002 18.9997 9.47002 18.9997H14.52C15.33 18.9997 15.99 18.3397 15.99 17.5297V17.3497C15.99 15.9697 16.41 14.5997 17.31 13.5497C18.48 12.1897 19.13 10.3797 18.97 8.4097C18.74 5.5997 16.79 3.1397 14.1 2.3197ZM15.89 12.1297C14.75 13.5397 14.11 15.1297 14.01 16.7597C14 16.8997 13.9 16.9997 13.77 16.9997H10.21C10.08 16.9997 9.98002 16.8997 9.97002 16.7697C9.83002 15.0397 9.20002 13.4397 8.16002 12.1997C7.18002 11.0397 6.80002 9.5497 7.09002 8.0197C7.45002 6.0797 9.05002 4.4697 10.98 4.0897C11.32 4.0297 11.66 3.9997 12 3.9997C14.76 3.9997 17 6.2397 17 8.9997C17 10.1497 16.62 11.2397 15.89 12.1297Z" fill="black" fill-opacity="0.56"/>
<path d="M14.75 20H9.25002C9.11002 20 9.00002 20.11 9.00002 20.25C9.00002 21.22 9.78001 22 10.75 22H13.25C14.22 22 15 21.22 15 20.25C15 20.11 14.89 20 14.75 20Z" fill="black" fill-opacity="0.56"/>
</svg>
