<svg width="24" height="24" viewBox="0 0 24 24" fill="none" xmlns="http://www.w3.org/2000/svg">
<path fill-rule="evenodd" clip-rule="evenodd" d="M8.42091 13.0079H10.9709C11.2599 13.0079 11.5349 13.1329 11.7259 13.3519C11.9149 13.5699 12.0009 13.8609 11.9609 14.1469L11.3729 18.3349L15.6119 10.9919H12.9889C12.6989 10.9919 12.4239 10.8669 12.2339 10.6479C12.0439 10.4289 11.9579 10.1379 11.9989 9.85191L12.5729 5.81691L8.42091 13.0079ZM10.6389 22.0359C10.1849 22.0359 9.75391 21.8399 9.45491 21.4969C9.15691 21.1539 9.02191 20.6989 9.08491 20.2489L9.81991 15.0079H8.11791C7.45791 15.0079 6.86691 14.6669 6.53691 14.0949C6.20791 13.5239 6.20791 12.8419 6.53691 12.2709L12.0449 2.73191C12.5409 1.87291 13.8839 1.74491 14.5319 2.49291C14.8239 2.82991 14.9549 3.27491 14.8929 3.71491L14.1419 8.99191H15.9159C16.5749 8.99191 17.1659 9.33291 17.4959 9.90391C17.8259 10.4759 17.8259 11.1579 17.4959 11.7289L11.9989 21.2509C11.7169 21.7359 11.1959 22.0359 10.6389 22.0359Z" fill="black" fill-opacity="0.56"/>
</svg>
