<svg width="24" height="24" viewBox="0 0 24 24" fill="none" xmlns="http://www.w3.org/2000/svg">
<path fill-rule="evenodd" clip-rule="evenodd" d="M8.3242 19.4643C8.1362 19.6243 7.8642 19.6243 7.6762 19.4643C5.7202 17.8073 1.3412 13.5253 2.0842 8.95133C2.5022 6.38133 4.6622 4.36233 7.2472 4.04633C10.8902 3.60133 14.0002 6.44433 14.0002 10.0003C14.0002 14.1683 10.1292 17.9343 8.3242 19.4643ZM6.9732 2.06533C3.4812 2.50233 0.604199 5.26333 0.0921988 8.74533C-0.941801 15.7583 7.0962 21.5833 7.4192 21.8143C7.5932 21.9383 7.7962 22.0003 8.0002 22.0003C8.2042 22.0003 8.4072 21.9383 8.5812 21.8143C8.8842 21.5973 16.0002 16.4413 16.0002 10.0003C16.0002 5.25133 11.8412 1.45633 6.9732 2.06533ZM16.5 19.0004C15.672 19.0004 15 19.6714 15 20.5004C15 21.3294 15.672 22.0004 16.5 22.0004C17.328 22.0004 18 21.3294 18 20.5004C18 19.6714 17.328 19.0004 16.5 19.0004ZM21.5 19.0004C20.672 19.0004 20 19.6714 20 20.5004C20 21.3294 20.672 22.0004 21.5 22.0004C22.328 22.0004 23 21.3294 23 20.5004C23 19.6714 22.328 19.0004 21.5 19.0004ZM6 10.0004C6 11.1034 6.897 12.0004 8 12.0004C9.103 12.0004 10 11.1034 10 10.0004C10 8.89743 9.103 8.00043 8 8.00043C6.897 8.00043 6 8.89743 6 10.0004ZM4 10.0004C4 7.79443 5.794 6.00043 8 6.00043C10.206 6.00043 12 7.79443 12 10.0004C12 12.2064 10.206 14.0004 8 14.0004C5.794 14.0004 4 12.2064 4 10.0004Z" fill="black" fill-opacity="0.56"/>
</svg>
