<svg width="24" height="24" viewBox="0 0 24 24" fill="none" xmlns="http://www.w3.org/2000/svg">
<path fill-rule="evenodd" clip-rule="evenodd" d="M5 10C5 11.657 6.343 13 8 13C9.657 13 11 11.657 11 10C11 8.343 9.657 7 8 7C6.343 7 5 8.343 5 10ZM0 10C0 5.589 3.589 2 8 2C12.411 2 16 5.589 16 10C16 16.44 8.884 21.597 8.581 21.814C8.407 21.938 8.204 22 8 22C7.796 22 7.593 21.938 7.419 21.814C7.116 21.597 0 16.44 0 10ZM15 20.5004C15 19.6714 15.672 19.0004 16.5 19.0004C17.328 19.0004 18 19.6714 18 20.5004C18 21.3294 17.328 22.0004 16.5 22.0004C15.672 22.0004 15 21.3294 15 20.5004ZM20 20.5004C20 19.6714 20.672 19.0004 21.5 19.0004C22.328 19.0004 23 19.6714 23 20.5004C23 21.3294 22.328 22.0004 21.5 22.0004C20.672 22.0004 20 21.3294 20 20.5004Z" fill="black" fill-opacity="0.56"/>
</svg>
