<svg width="24" height="24" viewBox="0 0 24 24" fill="none" xmlns="http://www.w3.org/2000/svg">
<path fill-rule="evenodd" clip-rule="evenodd" d="M11.6762 19.4643C11.8642 19.6243 12.1362 19.6243 12.3242 19.4643C14.1292 17.9343 18.0002 14.1683 18.0002 10.0003C18.0002 6.44433 14.8902 3.60133 11.2472 4.04633C8.6622 4.36233 6.5022 6.38133 6.0842 8.95133C5.3412 13.5253 9.7202 17.8073 11.6762 19.4643ZM4.0922 8.74533C4.6042 5.26333 7.4812 2.50233 10.9732 2.06533C15.8412 1.45633 20.0002 5.25133 20.0002 10.0003C20.0002 16.4413 12.8842 21.5973 12.5812 21.8143C12.4072 21.9383 12.2042 22.0003 12.0002 22.0003C11.7962 22.0003 11.5932 21.9383 11.4192 21.8143C11.0962 21.5833 3.0582 15.7583 4.0922 8.74533ZM10 10.0004C10 11.1034 10.897 12.0004 12 12.0004C13.103 12.0004 14 11.1034 14 10.0004C14 8.89743 13.103 8.00043 12 8.00043C10.897 8.00043 10 8.89743 10 10.0004ZM8 10.0004C8 7.79443 9.794 6.00043 12 6.00043C14.206 6.00043 16 7.79443 16 10.0004C16 12.2064 14.206 14.0004 12 14.0004C9.794 14.0004 8 12.2064 8 10.0004Z" fill="black" fill-opacity="0.56"/>
</svg>
