<svg width="24" height="24" viewBox="0 0 24 24" fill="none" xmlns="http://www.w3.org/2000/svg">
<path fill-rule="evenodd" clip-rule="evenodd" d="M20 16.3281L16.272 18.4581V7.67114L20 5.54114V16.3281ZM9.728 5.43614L14.272 7.70814V18.5631L9.728 16.2901V5.43614ZM4 7.67114L7.728 5.54114V16.3281L4 18.4581V7.67114ZM21.502 2.95314C21.194 2.77314 20.813 2.77214 20.504 2.95014L15.241 5.95614L9.175 2.92314C9.143 2.90714 9.107 2.90014 9.073 2.88814C9.035 2.87414 8.998 2.85714 8.959 2.84814C8.917 2.83814 8.875 2.83514 8.832 2.83114C8.789 2.82714 8.747 2.82014 8.704 2.82114C8.664 2.82214 8.625 2.83014 8.585 2.83614C8.54 2.84214 8.496 2.84614 8.453 2.85914C8.412 2.87014 8.373 2.89014 8.334 2.90814C8.3 2.92214 8.264 2.93114 8.231 2.95014L2.504 6.22214C2.192 6.40014 2 6.73114 2 7.09014V20.1811C2 20.5371 2.189 20.8671 2.498 21.0461C2.653 21.1361 2.826 21.1811 3 21.1811C3.171 21.1811 3.343 21.1371 3.496 21.0491L8.759 18.0421L14.825 21.0761C14.838 21.0821 14.852 21.0791 14.864 21.0851C14.995 21.1441 15.132 21.1811 15.272 21.1811C15.361 21.1811 15.449 21.1681 15.535 21.1441C15.563 21.1371 15.588 21.1221 15.615 21.1121C15.667 21.0931 15.72 21.0771 15.769 21.0491L21.496 17.7771C21.808 17.5991 22 17.2671 22 16.9091V3.81814C22 3.46114 21.811 3.13214 21.502 2.95314Z" fill="black" fill-opacity="0.56"/>
</svg>
