<svg width="24" height="24" viewBox="0 0 24 24" fill="none" xmlns="http://www.w3.org/2000/svg">
<path fill-rule="evenodd" clip-rule="evenodd" d="M9.72751 5.43614L14.2725 7.70814V18.5631L9.72751 16.2901V5.43614ZM21.5015 2.95314C21.1945 2.77314 20.8135 2.77214 20.5035 2.95014L15.2415 5.95714L9.17451 2.92314C9.14251 2.90714 9.10751 2.90014 9.07351 2.88814C9.03551 2.87414 8.99851 2.85714 8.95851 2.84814C8.91651 2.83814 8.87451 2.83514 8.83151 2.83114C8.78951 2.82714 8.74751 2.82014 8.70451 2.82114C8.66451 2.82214 8.62451 2.83014 8.58451 2.83614C8.54051 2.84214 8.49651 2.84614 8.45351 2.85914C8.41251 2.87114 8.37351 2.89114 8.33351 2.90814C8.29951 2.92214 8.26351 2.93114 8.23151 2.95014L2.50351 6.22214C2.19251 6.40014 1.99951 6.73114 1.99951 7.09014V20.1811C1.99951 20.5381 2.18951 20.8671 2.49851 21.0461C2.65351 21.1361 2.82651 21.1811 2.99951 21.1811C3.17051 21.1811 3.34251 21.1371 3.49651 21.0491L8.75851 18.0421L14.8255 21.0761C14.8375 21.0821 14.8515 21.0791 14.8645 21.0851C14.9955 21.1441 15.1315 21.1811 15.2725 21.1811C15.3615 21.1811 15.4495 21.1681 15.5355 21.1441C15.5625 21.1371 15.5875 21.1221 15.6155 21.1121C15.6665 21.0931 15.7195 21.0771 15.7685 21.0491L21.4965 17.7771C21.8075 17.5991 21.9995 17.2681 21.9995 16.9091V3.81814C21.9995 3.46114 21.8105 3.13214 21.5015 2.95314Z" fill="black" fill-opacity="0.56"/>
</svg>
