<svg width="24" height="24" viewBox="0 0 24 24" fill="none" xmlns="http://www.w3.org/2000/svg">
<path fill-rule="evenodd" clip-rule="evenodd" d="M13.5001 11.9321C13.5001 15.6606 10.4778 18.6821 6.75062 18.6821C3.02245 18.6821 0.00012207 15.6606 0.00012207 11.9321C0.00012207 8.20369 3.02245 5.18213 6.75062 5.18213C10.4778 5.18213 13.5001 8.20369 13.5001 11.9321ZM20.6001 11.9321C20.6001 15.467 19.0775 18.3321 17.1996 18.3321C15.3217 18.3321 13.8001 15.467 13.8001 11.9321C13.8001 8.39722 15.3217 5.53213 17.1996 5.53213C19.0775 5.53213 20.6001 8.39722 20.6001 11.9321ZM22.4001 17.8131C23.2291 17.8131 23.9001 15.2101 23.9001 12.0001C23.9001 8.79013 23.2291 6.18713 22.4001 6.18713C21.5712 6.18713 20.9001 8.79013 20.9001 12.0001C20.9001 15.2101 21.5712 17.8131 22.4001 17.8131Z" fill="black" fill-opacity="0.56"/>
</svg>
