<svg width="24" height="24" viewBox="0 0 24 24" fill="none" xmlns="http://www.w3.org/2000/svg">
<path d="M7.95997 18.5405L6.37997 17.8205C6.26997 17.7705 6.17997 17.6805 6.12997 17.5705L5.40997 16.0005C5.22997 15.6105 4.67997 15.6105 4.49997 16.0005L3.77997 17.5805C3.72997 17.6905 3.63997 17.7805 3.52997 17.8305L1.94997 18.5505C1.55997 18.7305 1.55997 19.2805 1.94997 19.4605L3.52997 20.1805C3.63997 20.2305 3.72997 20.3205 3.77997 20.4305L4.49997 22.0005C4.67997 22.3905 5.22997 22.3905 5.40997 22.0005L6.12997 20.4205C6.17997 20.3105 6.26997 20.2205 6.37997 20.1705L7.95997 19.4505C8.34997 19.2805 8.34997 18.7205 7.95997 18.5405Z" fill="black" fill-opacity="0.56"/>
<path d="M1.96997 5.47027L3.58997 6.20027C3.67997 6.24027 3.74997 6.31027 3.78997 6.40027L4.51997 8.01027C4.69997 8.40027 5.24997 8.40027 5.42997 8.01027L6.15997 6.40027C6.19997 6.31027 6.26997 6.24027 6.35997 6.20027L7.96997 5.47027C8.35997 5.29027 8.35997 4.74027 7.96997 4.56027L6.35997 3.82027C6.26997 3.78027 6.19997 3.71027 6.15997 3.62027L5.42997 2.01027C5.24997 1.62027 4.69997 1.62027 4.51997 2.01027L3.77997 3.63027C3.73997 3.72027 3.66997 3.79027 3.57997 3.83027L1.96997 4.56027C1.57997 4.73027 1.57997 5.29027 1.96997 5.47027Z" fill="black" fill-opacity="0.56"/>
<path d="M21.94 11.5407L18.94 10.1807L17.62 9.5907C17.51 9.5407 17.42 9.4507 17.37 9.3407L16.78 8.0207L15.42 5.0207C15.24 4.6207 14.68 4.6207 14.5 5.0207L13.14 8.0207L12.55 9.3407C12.5 9.4507 12.41 9.5407 12.3 9.5907L10.98 10.1807L7.97997 11.5407C7.57997 11.7207 7.57997 12.2807 7.97997 12.4607L10.98 13.8207L12.3 14.4107C12.41 14.4607 12.5 14.5507 12.55 14.6607L13.14 15.9807L14.5 18.9807C14.68 19.3807 15.24 19.3807 15.42 18.9807L16.78 15.9807L17.37 14.6607C17.42 14.5507 17.51 14.4607 17.62 14.4107L18.94 13.8207L21.94 12.4607C22.33 12.2807 22.33 11.7207 21.94 11.5407Z" fill="black" fill-opacity="0.56"/>
</svg>
