<svg width="24" height="24" viewBox="0 0 24 24" fill="none" xmlns="http://www.w3.org/2000/svg">
<path fill-rule="evenodd" clip-rule="evenodd" d="M17.4345 8.451C17.1425 8.8 16.7145 9 16.2595 9H7.19049C6.86449 9 6.57049 8.862 6.36249 8.612C6.15449 8.361 6.07349 8.046 6.13349 7.723L6.37249 6.442C6.63549 5.027 7.87449 4 9.32049 4H14.6795C16.1245 4 17.3645 5.027 17.6275 6.445L17.7655 7.198C17.8465 7.645 17.7255 8.102 17.4345 8.451ZM15.9995 16.5C15.1715 16.5 14.4995 15.828 14.4995 15C14.4995 14.171 15.1715 13.5 15.9995 13.5C16.8285 13.5 17.4995 14.171 17.4995 15C17.4995 15.828 16.8285 16.5 15.9995 16.5ZM7.99949 16.5C7.17149 16.5 6.49949 15.828 6.49949 15C6.49949 14.171 7.17149 13.5 7.99949 13.5C8.82849 13.5 9.49949 14.171 9.49949 15C9.49949 15.828 8.82849 16.5 7.99949 16.5ZM19.3065 18.893C19.5645 18.685 19.8065 18.453 20.0225 18.193C20.9775 17.043 21.3675 15.543 21.0925 14.075L19.7325 6.835H19.7315L19.5935 6.077C19.1555 3.715 17.0885 2 14.6795 2H9.32049C6.91149 2 4.84449 3.715 4.40649 6.076L4.16749 7.355L2.90649 14.076C2.63249 15.543 3.02249 17.043 3.97749 18.193C4.19349 18.453 4.43549 18.685 4.69349 18.893L3.29249 20.293C2.90249 20.683 2.90249 21.316 3.29249 21.707C3.48849 21.902 3.74449 22 3.99949 22C4.25549 22 4.51149 21.902 4.70649 21.707L6.57749 19.837C6.97949 19.94 7.39549 20 7.82049 20H16.1795C16.6045 20 17.0205 19.94 17.4225 19.837L19.2925 21.707C19.4885 21.902 19.7445 22 19.9995 22C20.2555 22 20.5115 21.902 20.7065 21.707C21.0975 21.316 21.0975 20.683 20.7065 20.293L19.3065 18.893Z" fill="black" fill-opacity="0.56"/>
</svg>
