<svg width="24" height="24" viewBox="0 0 24 24" fill="none" xmlns="http://www.w3.org/2000/svg">
<path fill-rule="evenodd" clip-rule="evenodd" d="M13.001 17.2145L11.919 12.8125C11.83 12.4505 11.548 12.1685 11.187 12.0795L6.786 10.9985L17.06 6.94155L13.001 17.2145ZM19.544 4.45755C19.262 4.17455 18.839 4.08755 18.47 4.23455L3.13299 10.2905C2.72799 10.4505 2.47299 10.8545 2.50199 11.2885C2.53099 11.7225 2.83899 12.0885 3.26199 12.1925L10.122 13.8775L11.808 20.7375C11.911 21.1605 12.276 21.4675 12.711 21.4965C12.733 21.4985 12.756 21.4995 12.778 21.4995C13.187 21.4995 13.557 21.2505 13.708 20.8665L19.767 5.53255C19.913 5.16155 19.826 4.73955 19.544 4.45755Z" fill="black" fill-opacity="0.56"/>
</svg>
