<svg width="24" height="24" viewBox="0 0 24 24" fill="none" xmlns="http://www.w3.org/2000/svg">
<path d="M21.09 16.3497L16.43 11.6997L20.61 7.51969C21.39 6.73969 21.39 5.46969 20.61 4.68969L19.63 3.70969C18.85 2.92969 17.58 2.92969 16.8 3.70969L12.62 7.88969L7.65004 2.90969C7.26004 2.51969 6.63004 2.51969 6.24004 2.90969L3.62004 5.52969C3.24004 5.90969 3.04004 6.40969 3.04004 6.93969C3.04004 7.47969 3.24004 7.97969 3.62004 8.35969L7.89004 12.6197L4.41004 16.0997C4.36004 16.1897 4.32004 16.2697 4.27004 16.3597L3.61004 19.5097C3.47004 20.1597 3.97004 20.7397 4.60004 20.7397C4.67004 20.7397 4.74004 20.7297 4.81004 20.7197L7.96004 20.0497C8.05004 19.9997 8.13004 19.9597 8.22004 19.9097L11.7 16.4297L15.64 20.3797C16.03 20.7697 16.54 20.9597 17.06 20.9597C17.57 20.9597 18.08 20.7697 18.47 20.3797L21.09 17.7597C21.48 17.3697 21.48 16.7397 21.09 16.3497ZM9.30004 11.2097L5.04004 6.93969L6.94004 5.02969L8.21004 6.29969L7.37004 7.13969C7.17004 7.33969 7.17004 7.64969 7.37004 7.84969L8.08004 8.55969C8.27004 8.74969 8.59004 8.74969 8.78004 8.55969L9.62004 7.71969L11.21 9.29969L9.30004 11.2097ZM16.29 6.33969L17.98 8.02969L16.92 9.08969L15.23 7.39969L16.29 6.33969ZM17.06 18.9597L13.11 15.0197L15.02 13.1097L16.28 14.3797L15.44 15.2197C15.25 15.4097 15.25 15.7297 15.44 15.9197L16.15 16.6297C16.35 16.8297 16.66 16.8297 16.86 16.6297L17.7 15.7897L18.96 17.0597L17.06 18.9597Z" fill="black" fill-opacity="0.56"/>
</svg>
