<svg width="24" height="24" viewBox="0 0 24 24" fill="none" xmlns="http://www.w3.org/2000/svg">
<path fill-rule="evenodd" clip-rule="evenodd" d="M19.0829 3.91998L20.0049 4.84198C20.7859 5.62298 20.7859 6.88898 20.0049 7.66998L18.7899 8.88498L15.0389 5.13498L16.2549 3.91998C16.6459 3.52998 17.1569 3.33398 17.6689 3.33398C17.7969 3.33398 17.9249 3.34598 18.0509 3.37098C18.3029 3.41998 18.5479 3.51698 18.7699 3.66398C18.8799 3.73698 18.9849 3.82198 19.0829 3.91998ZM3.94901 16.341C3.96901 16.246 4.01701 16.159 4.08501 16.09L14.04 6.13498L17.79 9.88498L7.83501 19.84C7.76701 19.909 7.68001 19.956 7.58401 19.976L4.48101 20.63C4.40901 20.644 4.33901 20.652 4.27101 20.652C4.26588 20.652 4.26101 20.6512 4.25627 20.6504C4.25177 20.6497 4.24739 20.649 4.24301 20.649C4.22157 20.6483 4.2006 20.6452 4.17913 20.642C4.16955 20.6406 4.15988 20.6392 4.15001 20.638C4.10301 20.632 4.05501 20.625 4.00901 20.612C3.97802 20.604 3.94804 20.592 3.91805 20.58L3.91801 20.58C3.87601 20.564 3.83501 20.546 3.79501 20.524C3.76701 20.508 3.73901 20.491 3.71301 20.473C3.67701 20.447 3.64201 20.421 3.60901 20.391C3.58501 20.369 3.56201 20.347 3.54001 20.323C3.51001 20.29 3.48201 20.255 3.45701 20.218C3.43901 20.193 3.42101 20.167 3.40501 20.139C3.38201 20.098 3.36401 20.055 3.34701 20.011C3.34334 20.0017 3.33945 19.9924 3.33557 19.9832C3.32779 19.9648 3.32001 19.9463 3.31401 19.927C3.30001 19.877 3.29301 19.824 3.28701 19.771C3.28568 19.7623 3.28412 19.7538 3.28256 19.7452C3.27945 19.7281 3.27634 19.711 3.27501 19.693C3.27301 19.612 3.27801 19.529 3.29601 19.445L3.94901 16.341Z" fill="black" fill-opacity="0.56"/>
</svg>
