<svg width="24" height="24" viewBox="0 0 24 24" fill="none" xmlns="http://www.w3.org/2000/svg">
<path d="M21.09 16.3497L16.44 11.6997L20.62 7.51969C21.4 6.73969 21.4 5.46969 20.62 4.68969L19.64 3.70969C18.86 2.92969 17.59 2.92969 16.81 3.70969L12.63 7.88969L7.64998 2.90969C7.25998 2.51969 6.61998 2.51969 6.23998 2.90969L3.61998 5.52969C3.23998 5.90969 3.03998 6.40969 3.03998 6.93969C3.03998 7.46969 3.24998 7.97969 3.62998 8.34969L7.89998 12.6197L4.40998 16.0997C4.35998 16.1897 4.31998 16.2697 4.26998 16.3597L3.60998 19.5097C3.46998 20.1597 3.96998 20.7397 4.59998 20.7397C4.66998 20.7397 4.73998 20.7297 4.80998 20.7197L7.95998 20.0497C8.04998 19.9997 8.12998 19.9597 8.21998 19.9097L11.7 16.4297L15.65 20.3797C16.04 20.7697 16.55 20.9597 17.06 20.9597C17.57 20.9597 18.08 20.7697 18.47 20.3797L21.09 17.7597C21.48 17.3697 21.48 16.7397 21.09 16.3497ZM18.21 5.16969L19.15 6.10969L17.78 7.46969L16.84 6.53969L18.21 5.16969ZM5.03998 6.93969L6.94998 5.02969L8.20998 6.29969L7.36998 7.13969C7.16998 7.33969 7.16998 7.64969 7.36998 7.84969L8.07998 8.55969C8.27998 8.75969 8.58998 8.75969 8.78998 8.55969L9.62998 7.71969L11.21 9.29969L9.29998 11.2097L5.03998 6.93969ZM7.09998 18.1597L5.91998 18.4097L6.16998 17.2197L9.31998 14.0597L9.98998 13.3897L15.43 7.94969L16.37 8.88969L7.09998 18.1597ZM17.06 18.9597L13.11 15.0097L15.02 13.0997L16.28 14.3697L15.44 15.2097C15.24 15.4097 15.24 15.7197 15.44 15.9197L16.15 16.6297C16.35 16.8297 16.66 16.8297 16.86 16.6297L17.7 15.7897L18.97 17.0597L17.06 18.9597Z" fill="black" fill-opacity="0.56"/>
</svg>
