<svg width="24" height="24" viewBox="0 0 24 24" fill="none" xmlns="http://www.w3.org/2000/svg">
<path fill-rule="evenodd" clip-rule="evenodd" d="M19.9863 17C19.9863 18.103 19.0893 19 17.9863 19H11.5143V17.164C11.5143 15.95 10.5273 14.963 9.31432 14.963H7.81232C7.39032 13.007 7.38832 10.976 7.80532 9.03695H9.31432C10.5273 9.03695 11.5143 8.04995 11.5143 6.83595V5.19995H17.9863C19.0893 5.19995 19.9863 6.09695 19.9863 7.19995V17ZM9.51432 20.423C9.51432 20.613 9.17532 20.623 9.10832 20.623H7.86632C6.83032 20.623 5.88932 20.005 5.47032 19.049C3.50432 14.566 3.50932 9.42595 5.48532 4.94695C5.90632 3.99295 6.84532 3.37695 7.88032 3.37695H7.88132H9.10932C9.17632 3.37695 9.51432 3.38695 9.51432 3.57695V6.83595C9.51432 6.94695 9.42432 7.03695 9.31432 7.03695H7.33632C6.68932 7.03695 6.12832 7.47295 5.97132 8.09795C5.33432 10.639 5.33632 13.336 5.97732 15.901C6.13332 16.526 6.69432 16.963 7.34132 16.963H9.31432C9.42432 16.963 9.51432 17.053 9.51432 17.164V20.423ZM17.9863 3.19995H11.4753C11.2903 2.13895 10.3383 1.37695 9.10932 1.37695H7.88132H7.88032C6.05332 1.37695 4.39532 2.46095 3.65532 4.13995C1.45432 9.12995 1.44832 14.857 3.63832 19.852C4.37732 21.536 6.03632 22.623 7.86632 22.623H9.10832C10.2583 22.623 11.1633 21.954 11.4273 21H17.9863C20.1923 21 21.9863 19.206 21.9863 17V7.19995C21.9863 4.99395 20.1923 3.19995 17.9863 3.19995ZM13.2363 7.99995C12.6843 7.99995 12.2363 8.44795 12.2363 8.99995C12.2363 9.55195 12.6843 9.99995 13.2363 9.99995C13.7893 9.99995 14.2363 9.55195 14.2363 8.99995C14.2363 8.44795 13.7893 7.99995 13.2363 7.99995ZM15.7363 8.99995C15.7363 8.44795 16.1843 7.99995 16.7363 7.99995C17.2893 7.99995 17.7363 8.44795 17.7363 8.99995C17.7363 9.55195 17.2893 9.99995 16.7363 9.99995C16.1843 9.99995 15.7363 9.55195 15.7363 8.99995ZM13.2363 11C12.6843 11 12.2363 11.448 12.2363 12C12.2363 12.552 12.6843 13 13.2363 13C13.7893 13 14.2363 12.552 14.2363 12C14.2363 11.448 13.7893 11 13.2363 11ZM15.7363 12C15.7363 11.448 16.1843 11 16.7363 11C17.2893 11 17.7363 11.448 17.7363 12C17.7363 12.552 17.2893 13 16.7363 13C16.1843 13 15.7363 12.552 15.7363 12ZM13.2363 14C12.6843 14 12.2363 14.448 12.2363 15C12.2363 15.552 12.6843 16 13.2363 16C13.7893 16 14.2363 15.552 14.2363 15C14.2363 14.448 13.7893 14 13.2363 14ZM15.7363 15C15.7363 14.448 16.1843 14 16.7363 14C17.2893 14 17.7363 14.448 17.7363 15C17.7363 15.552 17.2893 16 16.7363 16C16.1843 16 15.7363 15.552 15.7363 15Z" fill="black" fill-opacity="0.56"/>
</svg>
