<svg width="24" height="24" viewBox="0 0 24 24" fill="none" xmlns="http://www.w3.org/2000/svg">
<path fill-rule="evenodd" clip-rule="evenodd" d="M9.9687 7.83328C10.4857 7.31728 10.4857 6.47928 9.9687 5.96328L7.4287 3.42428C6.9127 2.90728 6.0777 2.90528 5.3997 3.58328L4.4427 4.54028C3.3237 5.65828 2.9797 7.33328 3.5517 8.80828C5.6147 14.1253 9.8417 18.3613 15.1537 20.4343C16.6287 21.0103 18.3067 20.6663 19.4257 19.5463L20.3937 18.5793C21.0727 17.9003 21.0707 17.0653 20.5537 16.5493L18.0147 14.0093C17.4977 13.4933 16.6607 13.4933 16.1447 14.0093L14.6087 15.5463C14.4637 15.6903 14.2377 15.7203 14.0627 15.6163C11.7267 14.2143 9.7567 12.2563 8.3577 9.91928C8.2527 9.74528 8.2827 9.51828 8.4277 9.37428L9.9687 7.83328Z" fill="black" fill-opacity="0.56"/>
</svg>
