<svg width="24" height="24" viewBox="0 0 24 24" fill="none" xmlns="http://www.w3.org/2000/svg">
<path fill-rule="evenodd" clip-rule="evenodd" d="M12.0219 9.98036C13.3299 9.98036 14.6359 10.1384 15.9009 10.4574C16.5259 10.6134 16.9639 11.1744 16.9639 11.8214V13.7994C16.9639 13.9094 17.0539 13.9994 17.1629 13.9994H20.4229C20.6129 13.9994 20.6229 13.6624 20.6229 13.5954V12.3664C20.6229 11.3314 20.0069 10.3914 19.0529 9.97036C14.5729 7.99536 9.43389 7.98936 4.94989 9.95636C3.99489 10.3754 3.37689 11.3154 3.37689 12.3514V13.5934C3.37689 13.6614 3.38689 13.9994 3.57689 13.9994H6.83689C6.94589 13.9994 7.03589 13.9094 7.03589 13.7994V11.8274C7.03589 11.1784 7.47489 10.6174 8.10189 10.4624C9.38689 10.1404 10.7049 9.98036 12.0219 9.98036ZM20.4229 15.9994H17.1629C15.9499 15.9994 14.9639 15.0124 14.9639 13.7994V12.2914C13.0249 11.8744 10.9929 11.8754 9.03589 12.2984V13.7994C9.03589 15.0124 8.04989 15.9994 6.83689 15.9994H3.57689C2.32289 15.9994 1.37689 14.9654 1.37689 13.5934V12.3514C1.37689 10.5224 2.46389 8.86236 4.14789 8.12436C9.14289 5.93236 14.8699 5.94036 19.8589 8.14036C21.5379 8.88136 22.6229 10.5394 22.6229 12.3664V13.5954C22.6229 14.9654 21.6769 15.9994 20.4229 15.9994Z" fill="black" fill-opacity="0.56"/>
</svg>
