<svg width="24" height="24" viewBox="0 0 24 24" fill="none" xmlns="http://www.w3.org/2000/svg">
<path fill-rule="evenodd" clip-rule="evenodd" d="M21.0088 10.999C21.0088 11.551 21.4558 11.999 22.0088 11.999C22.5618 11.999 23.0088 11.551 23.0088 10.999C23.0088 5.48502 18.5228 0.999023 13.0088 0.999023C12.4558 0.999023 12.0088 1.44702 12.0088 1.99902C12.0088 2.55102 12.4558 2.99902 13.0088 2.99902C17.4198 2.99902 21.0088 6.58802 21.0088 10.999ZM19.0088 11.999C18.4558 11.999 18.0088 11.551 18.0088 10.999C18.0088 8.24202 15.7658 5.99902 13.0088 5.99902C12.4558 5.99902 12.0088 5.55102 12.0088 4.99902C12.0088 4.44702 12.4558 3.99902 13.0088 3.99902C16.8678 3.99902 20.0088 7.13902 20.0088 10.999C20.0088 11.551 19.5618 11.999 19.0088 11.999ZM4.63667 7.16312C4.67367 7.12512 4.83067 6.97612 4.96267 6.97612C4.99967 6.97612 5.03467 6.98812 5.06467 7.01812L7.36867 9.32312C7.44767 9.40112 7.44767 9.52812 7.36867 9.60612L5.97067 11.0051C5.51267 11.4621 5.42467 12.1681 5.75567 12.7201C7.10167 14.9681 9.01067 16.8741 11.2767 18.2331C11.8297 18.5661 12.5347 18.4781 12.9937 18.0201L14.3887 16.6261C14.4667 16.5461 14.5937 16.5491 14.6717 16.6251L16.9767 18.9311C17.1117 19.0651 16.8787 19.3111 16.8307 19.3591L15.9517 20.2371C15.2197 20.9701 14.1177 21.1981 13.1457 20.8181C8.58567 19.0391 4.95467 15.4011 3.18467 10.8361C2.80767 9.86412 3.03567 8.76312 3.76767 8.03212L4.63667 7.16312ZM12.4187 22.6821C12.9667 22.8951 13.5387 22.9991 14.1057 22.9991C15.3087 22.9991 16.4877 22.5311 17.3667 21.6521L18.2447 20.7731C19.2147 19.8031 19.2777 18.4031 18.3907 17.5171L16.0857 15.2111C15.2287 14.3541 13.8317 14.3541 12.9747 15.2111L11.9117 16.2731C10.2307 15.1881 8.79267 13.7531 7.71667 12.0871L8.78367 11.0201C9.19967 10.6051 9.42767 10.0531 9.42767 9.46512C9.42767 8.87712 9.19967 8.32512 8.78367 7.90912L6.47867 5.60312C5.58967 4.71712 4.19167 4.78012 3.22267 5.74812L2.35367 6.61812C1.06267 7.90912 0.656671 9.84912 1.31967 11.5601C3.29267 16.6451 7.33767 20.6991 12.4187 22.6821ZM15.0088 10.999C15.0088 11.551 15.4558 11.999 16.0088 11.999C16.5618 11.999 17.0088 11.551 17.0088 10.999C17.0088 8.79302 15.2148 6.99902 13.0088 6.99902C12.4558 6.99902 12.0088 7.44702 12.0088 7.99902C12.0088 8.55102 12.4558 8.99902 13.0088 8.99902C14.1118 8.99902 15.0088 9.89602 15.0088 10.999Z" fill="black" fill-opacity="0.56"/>
</svg>
