<svg width="24" height="24" viewBox="0 0 24 24" fill="none" xmlns="http://www.w3.org/2000/svg">
<path fill-rule="evenodd" clip-rule="evenodd" d="M11.9741 11.3599C10.3501 11.3599 9.03509 10.0439 9.03509 8.41992C9.03509 6.79692 10.3501 5.47992 11.9741 5.47992C13.5991 5.47992 14.9141 6.79692 14.9141 8.41992C14.9141 10.0439 13.5991 11.3599 11.9741 11.3599ZM11.7611 1.00292C7.75309 1.11892 4.47709 4.56592 4.55609 8.57292C4.61509 11.5779 6.45909 14.1449 9.07209 15.2569C10.3161 15.7869 11.1531 16.9719 11.1531 18.3239V22.1729C11.1531 22.6299 11.5231 22.9999 11.9801 22.9999C12.4361 22.9999 12.8071 22.6299 12.8071 22.1729V18.3219C12.8071 16.9919 13.6041 15.7919 14.8311 15.2799C17.5171 14.1619 19.4051 11.5149 19.4051 8.42492C19.4051 4.25192 15.9611 0.881915 11.7611 1.00292Z" fill="black" fill-opacity="0.56"/>
</svg>
