<svg width="24" height="24" viewBox="0 0 24 24" fill="none" xmlns="http://www.w3.org/2000/svg">
<path fill-rule="evenodd" clip-rule="evenodd" d="M12.1875 15.8089L10.1895 13.8109V13.8099H10.1885L8.19051 11.8119L14.3195 6.6259L17.3735 9.6809L12.1875 15.8089ZM20.4425 9.9219L20.0885 9.5679L14.4315 3.9109L14.0785 3.5579C13.6875 3.1669 13.0545 3.1669 12.6645 3.5579C12.2735 3.9479 12.2735 4.5809 12.6645 4.9719L12.9005 5.2069L6.77151 10.3929L5.94651 9.5679C5.55551 9.1769 4.92251 9.1769 4.53251 9.5679C4.14151 9.9579 4.14151 10.5909 4.53251 10.9819L5.23951 11.6889L8.06851 14.5169L4.53251 18.0529C4.14151 18.4439 4.14151 19.0769 4.53251 19.4669C4.72751 19.6629 4.98351 19.7599 5.23951 19.7599C5.49551 19.7599 5.75051 19.6629 5.94651 19.4669L9.48251 15.9319L12.3105 18.7599L13.0175 19.4669C13.2125 19.6629 13.4685 19.7599 13.7245 19.7599C13.9805 19.7599 14.2365 19.6629 14.4315 19.4669C14.8225 19.0769 14.8225 18.4439 14.4315 18.0529L13.6065 17.2279L18.7925 11.0999L19.0285 11.3359C19.2235 11.5309 19.4795 11.6289 19.7355 11.6289C19.9915 11.6289 20.2475 11.5309 20.4425 11.3359C20.8335 10.9449 20.8335 10.3119 20.4425 9.9219Z" fill="black" fill-opacity="0.56"/>
</svg>
