<svg width="24" height="24" viewBox="0 0 24 24" fill="none" xmlns="http://www.w3.org/2000/svg">
<path fill-rule="evenodd" clip-rule="evenodd" d="M9.17382 13L9.83982 5H14.1598L14.8258 13H9.17382ZM17.9998 13H16.8328L16.1668 5H16.4998C17.0528 5 17.4998 4.552 17.4998 4C17.4998 3.448 17.0528 3 16.4998 3H15.9998H7.99982H7.49982C6.94682 3 6.49982 3.448 6.49982 4C6.49982 4.552 6.94682 5 7.49982 5H7.83282L7.16682 13H5.99982C5.44682 13 4.99982 13.448 4.99982 14C4.99982 14.552 5.44682 15 5.99982 15H6.99982H10.9998V20C10.9998 20.552 11.4468 21 11.9998 21C12.5528 21 12.9998 20.552 12.9998 20V15H16.9998H17.9998C18.5528 15 18.9998 14.552 18.9998 14C18.9998 13.448 18.5528 13 17.9998 13Z" fill="black" fill-opacity="0.56"/>
</svg>
