<svg width="24" height="24" viewBox="0 0 24 24" fill="none" xmlns="http://www.w3.org/2000/svg">
<path fill-rule="evenodd" clip-rule="evenodd" d="M20.4424 9.9219L20.0884 9.5679L14.4314 3.9109L14.0784 3.5579C13.6874 3.1669 13.0544 3.1669 12.6644 3.5579C12.2734 3.9479 12.2734 4.5809 12.6644 4.9719L12.9004 5.2079L6.77139 10.3929L5.94639 9.5679C5.55539 9.1769 4.92239 9.1769 4.53239 9.5679C4.14139 9.9589 4.14139 10.5909 4.53239 10.9819L5.23939 11.6899L8.06839 14.5179L4.53239 18.0529C4.14139 18.4439 4.14139 19.0769 4.53239 19.4669C4.72739 19.6629 4.98339 19.7599 5.23939 19.7599C5.49539 19.7599 5.75139 19.6629 5.94639 19.4669L9.48239 15.9319L12.3104 18.7599L13.0174 19.4669C13.2134 19.6629 13.4684 19.7599 13.7244 19.7599C13.9804 19.7599 14.2364 19.6629 14.4314 19.4669C14.8224 19.0769 14.8224 18.4439 14.4314 18.0529L13.6064 17.2289L18.7934 11.0999L19.0284 11.3359C19.2234 11.5309 19.4794 11.6289 19.7354 11.6289C19.9914 11.6289 20.2474 11.5309 20.4424 11.3359C20.8334 10.9449 20.8334 10.3129 20.4424 9.9219Z" fill="black" fill-opacity="0.56"/>
</svg>
