<svg width="24" height="24" viewBox="0 0 24 24" fill="none" xmlns="http://www.w3.org/2000/svg">
<path fill-rule="evenodd" clip-rule="evenodd" d="M16.041 11.2884L14.226 12.8594L14.772 15.1974C14.872 15.6234 14.41 15.9604 14.035 15.7344L11.977 14.4934L9.922 15.7334C9.547 15.9604 9.085 15.6234 9.185 15.1974L9.729 12.8594L7.914 11.2884C7.583 11.0014 7.759 10.4584 8.195 10.4204L10.586 10.2164L11.521 8.00841C11.692 7.60641 12.263 7.60641 12.434 8.00841L13.369 10.2164L15.76 10.4204C16.196 10.4584 16.372 11.0014 16.041 11.2884ZM19.2 8.40441C19.2 7.24441 19.948 6.08341 20.479 5.40541C20.762 5.04641 20.732 4.53641 20.409 4.21341L19.682 3.48641C19.414 3.21841 19.008 3.11941 18.661 3.27041C17.731 3.67941 16.65 3.90441 15.6 3.90441C14.499 3.90441 13.355 3.64941 12.4 3.20741C12.144 3.08841 11.856 3.08841 11.6 3.20741C10.645 3.64941 9.501 3.90441 8.4 3.90441C7.35 3.90441 6.269 3.67941 5.339 3.27041C4.992 3.11941 4.587 3.21741 4.319 3.48441L3.678 4.12641C3.268 4.53741 3.238 5.04641 3.52 5.40541C4.052 6.08341 4.8 7.24441 4.8 8.40441C4.8 10.2044 3 13.8044 3 15.6044C3 18.7494 9.868 20.5204 11.605 20.9184C11.869 20.9784 12.131 20.9784 12.395 20.9184C14.132 20.5204 21 18.7494 21 15.6044C21 13.8044 19.2 10.2044 19.2 8.40441Z" fill="black" fill-opacity="0.56"/>
</svg>
