<svg width="24" height="24" viewBox="0 0 24 24" fill="none" xmlns="http://www.w3.org/2000/svg">
<path fill-rule="evenodd" clip-rule="evenodd" d="M11 5C11 4.44772 11.4477 4 12 4C13.8509 4 15.6444 4.64175 17.0752 5.81592C18.5059 6.99008 19.4852 8.624 19.8463 10.4393C20.2074 12.2546 19.9279 14.1389 19.0554 15.7712C18.1829 17.4035 16.7714 18.6828 15.0615 19.391C13.3515 20.0993 11.4489 20.1928 9.67773 19.6555C7.90659 19.1183 6.37653 17.9835 5.34825 16.4446C4.31998 14.9056 3.85712 13.0578 4.03853 11.2159C4.21995 9.37393 5.03442 7.65189 6.34316 6.34314C6.73368 5.95262 7.36685 5.95262 7.75737 6.34314C8.1479 6.73367 8.1479 7.36683 7.75737 7.75736C6.77582 8.73891 6.16497 10.0304 6.0289 11.4119C5.89284 12.7933 6.23999 14.1792 7.01119 15.3334C7.7824 16.4876 8.92994 17.3387 10.2583 17.7416C11.5867 18.1446 13.0136 18.0745 14.2961 17.5433C15.5786 17.0121 16.6372 16.0526 17.2915 14.8284C17.9459 13.6042 18.1555 12.1909 17.8847 10.8295C17.6139 9.468 16.8794 8.24256 15.8064 7.36194C14.7333 6.48132 13.3881 6 12 6C11.4477 6 11 5.55228 11 5Z" fill="black" fill-opacity="0.56"/>
</svg>
