<svg width="24" height="24" viewBox="0 0 24 24" fill="none" xmlns="http://www.w3.org/2000/svg">
<path d="M5.99998 6H18C18.55 6 19 5.55 19 5C19 4.45 18.55 4 18 4H5.99998C5.44998 4 4.99998 4.45 4.99998 5C4.99998 5.55 5.44998 6 5.99998 6Z" fill="black" fill-opacity="0.56"/>
<path d="M19.44 13.5599L13.03 7.44992C12.46 6.90992 11.53 6.90992 10.96 7.44992L4.54997 13.5599C4.12997 13.9699 3.99997 14.5799 4.22997 15.1199C4.45997 15.6499 5.00997 15.9999 5.61997 15.9999H7.99997V19.4999C7.99997 20.3299 8.66997 20.9999 9.49997 20.9999H14.5C15.33 20.9999 16 20.3299 16 19.4999V15.9999H18.38C18.99 15.9999 19.53 15.6499 19.77 15.1199C20 14.5799 19.87 13.9699 19.44 13.5599ZM14 13.9999V18.9999H9.99997V13.9999H6.81997L12 9.06992L17.18 13.9999H14Z" fill="black" fill-opacity="0.56"/>
</svg>
