<svg width="24" height="24" viewBox="0 0 24 24" fill="none" xmlns="http://www.w3.org/2000/svg">
<path d="M19.93 20.2099C19.6 20.2099 19.28 20.0399 19.09 19.7499C16.7 16.0399 14.32 15.5699 12 15.5099V17.3299C12 18.1399 11.52 18.8699 10.77 19.1799C10.02 19.4899 9.15999 19.3199 8.58999 18.7499L3.25999 13.4199C2.47999 12.6399 2.47999 11.3699 3.25999 10.5899L8.58999 5.25992C9.22999 4.61992 10.23 4.47992 11.03 4.95992C11.66 5.32992 12 6.05992 12 6.79992V8.54992C16.32 8.93992 20.93 11.8799 20.93 19.2099C20.93 19.6499 20.64 20.0399 20.21 20.1699C20.12 20.1899 20.02 20.2099 19.93 20.2099ZM9.56999 7.09992L5.01999 11.6499C4.81999 11.8499 4.81999 12.1599 5.01999 12.3599L9.56999 16.9099C9.72999 17.0599 9.99999 16.9499 9.99999 16.7199V14.4999C9.99999 13.9499 10.44 13.4999 11 13.4999C13.12 13.4999 15.85 13.4999 18.53 15.9499C17.14 10.9499 12.57 10.4999 11 10.4999C10.45 10.4999 9.99999 10.0499 9.99999 9.49992V7.27992C9.99999 7.04992 9.72999 6.93992 9.56999 7.09992Z" fill="black" fill-opacity="0.56"/>
</svg>
