<svg width="24" height="24" viewBox="0 0 24 24" fill="none" xmlns="http://www.w3.org/2000/svg">
<path d="M13 3.5107C12.7 3.3207 12.35 3.2207 12 3.2207C11.65 3.2207 11.3 3.3207 11 3.5107C8.71005 4.9907 7.30005 8.1507 7.08005 10.8707C6.81005 14.3207 7.30005 17.5407 7.68005 19.3907C7.87005 20.3307 8.69005 21.0007 9.64005 21.0007H14.36C15.31 21.0007 16.13 20.3307 16.32 19.3907C16.7 17.5407 17.1901 14.3207 16.92 10.8707C16.71 8.1507 15.3 4.9907 13 3.5107ZM12 13.0007C10.9 13.0007 10.0001 12.1007 10.0001 11.0007C10.0001 9.9007 10.9 9.0007 12 9.0007C13.1 9.0007 14 9.9007 14 11.0007C14 12.1007 13.1 13.0007 12 13.0007Z" fill="black" fill-opacity="0.56"/>
<path d="M6.21004 19.7011C5.80004 17.6911 5.37004 14.6611 5.55004 11.3711L2.85004 14.7711C2.29004 15.4711 2.03004 16.3511 2.10004 17.2411L2.35004 20.2711C2.39004 20.8211 2.72004 21.2811 3.22004 21.5111C3.42004 21.6011 3.63004 21.6511 3.84004 21.6511C4.15004 21.6511 4.46004 21.5511 4.73004 21.3511L6.34004 20.1611C6.29004 20.0011 6.24004 19.8511 6.21004 19.7011Z" fill="black" fill-opacity="0.56"/>
<path d="M21.1501 14.7613L18.4501 11.3613C18.6301 14.6513 18.2001 17.6913 17.7901 19.6913C17.7601 19.8513 17.7101 20.0013 17.6501 20.1513L19.2601 21.3413C19.5301 21.5413 19.8301 21.6413 20.1501 21.6413C20.3601 21.6413 20.5701 21.5913 20.7701 21.5013C21.2701 21.2713 21.6001 20.8113 21.6401 20.2613L21.8901 17.2313C21.9701 16.3413 21.7101 15.4613 21.1501 14.7613Z" fill="black" fill-opacity="0.56"/>
</svg>
