<svg width="24" height="24" viewBox="0 0 24 24" fill="none" xmlns="http://www.w3.org/2000/svg">
<path fill-rule="evenodd" clip-rule="evenodd" d="M12.9818 4.03282C12.9843 4.03207 12.9868 4.03132 12.9893 4.03132C17.9523 4.03132 21.9893 8.06932 21.9893 13.0313C21.9893 17.9933 17.9523 22.0313 12.9893 22.0313C11.9753 22.0313 10.9813 21.8643 10.0333 21.5343C9.51129 21.3533 9.23629 20.7823 9.41829 20.2613C9.59929 19.7393 10.1693 19.4653 10.6913 19.6453C11.4273 19.9013 12.2003 20.0313 12.9893 20.0313C16.8483 20.0313 19.9893 16.8913 19.9893 13.0313C19.9893 9.17132 16.8483 6.03132 12.9893 6.03132C12.9868 6.03132 12.9843 6.03057 12.9818 6.02982C12.9793 6.02907 12.9768 6.02832 12.9743 6.02832V6.84132C12.9743 7.73132 11.8973 8.17732 11.2683 7.54732L9.44029 5.72032C9.05129 5.32932 9.05129 4.69732 9.44029 4.30632L11.2683 2.47932C11.8973 1.84932 12.9743 2.29632 12.9743 3.18632V4.03432C12.9768 4.03432 12.9793 4.03357 12.9818 4.03282ZM6.62209 15.8614C6.81709 16.0564 7.07309 16.1544 7.32909 16.1544C7.58509 16.1544 7.84109 16.0564 8.03609 15.8614L10.2871 13.6104C10.6781 13.2194 10.6781 12.5874 10.2871 12.1964L8.03609 9.94542C7.84109 9.75042 7.58509 9.65342 7.32909 9.65342C7.07309 9.65342 6.81709 9.75042 6.62209 9.94542L4.37109 12.1964C3.98009 12.5874 3.98009 13.2194 4.37109 13.6104L6.62209 15.8614ZM11.7011 10.7824C12.8711 11.9514 12.8711 13.8554 11.7011 15.0254L9.45009 17.2754C8.88409 17.8424 8.13109 18.1544 7.32909 18.1544C6.52809 18.1544 5.77409 17.8424 5.20809 17.2754L2.95709 15.0254C1.78709 13.8554 1.78709 11.9514 2.95709 10.7824L5.20809 8.53142C5.77409 7.96542 6.52709 7.65342 7.32909 7.65342C8.13109 7.65342 8.88409 7.96542 9.45009 8.53142L11.7011 10.7824Z" fill="black" fill-opacity="0.56"/>
</svg>
