<svg width="24" height="24" viewBox="0 0 24 24" fill="none" xmlns="http://www.w3.org/2000/svg">
<path fill-rule="evenodd" clip-rule="evenodd" d="M21.9321 8.65853C21.9691 8.76053 21.9931 8.86753 21.9961 8.97953C21.9961 8.98303 21.9971 8.98628 21.9981 8.98953C21.9991 8.99278 22.0001 8.99603 22.0001 8.99953V15.9995C22.0001 16.5515 21.5531 16.9995 21.0001 16.9995C20.4471 16.9995 20.0001 16.5515 20.0001 15.9995V10.6535L19.1641 11.0915C19.1621 11.0925 19.1591 11.0925 19.1571 11.0935L13.6251 13.9955C12.6071 14.5295 11.3921 14.5295 10.3751 13.9955L4.62906 10.9815C4.62806 10.981 4.62731 10.981 4.62656 10.981C4.62581 10.981 4.62506 10.981 4.62406 10.9805L2.53506 9.88553C2.21006 9.71453 2.00506 9.37853 2.00006 9.01153C1.99606 8.64453 2.19306 8.30353 2.51506 8.12553L10.5411 3.66553C11.4511 3.15853 12.5421 3.15853 13.4541 3.66453L21.4851 8.12553C21.5661 8.17053 21.6401 8.22653 21.7041 8.29053C21.707 8.29346 21.7096 8.29708 21.7122 8.30079C21.7141 8.3034 21.716 8.30605 21.7181 8.30853C21.7921 8.38553 21.8501 8.47553 21.8951 8.57153C21.9091 8.59953 21.9201 8.62753 21.9321 8.65853ZM11.9998 15.3958C12.7178 15.3958 13.4358 15.2238 14.0898 14.8808L18.9998 12.3058V15.4638C18.9998 16.1348 18.6668 16.7568 18.1098 17.1288L14.7738 19.3528C13.9308 19.9138 12.9658 20.1948 11.9998 20.1948C11.0338 20.1948 10.0688 19.9138 9.22676 19.3528L5.89076 17.1288C5.33276 16.7568 4.99976 16.1348 4.99976 15.4638V12.3058L9.90976 14.8808C10.5648 15.2238 11.2818 15.3958 11.9998 15.3958Z" fill="black" fill-opacity="0.56"/>
</svg>
