<svg width="24" height="24" viewBox="0 0 24 24" fill="none" xmlns="http://www.w3.org/2000/svg">
<path fill-rule="evenodd" clip-rule="evenodd" d="M16.7646 15.5901L13.5796 17.5641C12.6126 18.1641 11.3876 18.1641 10.4186 17.5641L7.23657 15.5901C7.08957 15.4991 6.99957 15.3381 6.99957 15.1651V12.2211L10.5836 14.0961C11.0286 14.3351 11.5166 14.4531 12.0016 14.4531C12.4866 14.4531 12.9686 14.3361 13.4076 14.1011L16.9996 12.2211L17.0006 15.1651C17.0006 15.3381 16.9106 15.4991 16.7646 15.5901ZM11.5296 5.66713C11.8236 5.50913 12.1766 5.50813 12.4796 5.67213L18.8426 9.00013L12.4706 12.3341C12.1766 12.4911 11.8246 12.4921 11.5206 12.3291L5.15757 9.00013L11.5296 5.66713ZM21.9306 8.65513C21.9186 8.62513 21.9066 8.59713 21.8926 8.56813C21.8496 8.48013 21.7966 8.40013 21.7306 8.32813C21.7186 8.31513 21.7096 8.29913 21.6976 8.28613C21.6286 8.21913 21.5516 8.16013 21.4636 8.11413L13.4156 3.90413C12.5286 3.42713 11.4706 3.43013 10.5926 3.89913L2.53557 8.11413C2.20657 8.28713 1.99957 8.62813 1.99957 9.00013C1.99957 9.37213 2.20657 9.71413 2.53557 9.88613L4.99957 11.1751V15.4441C4.99957 16.1361 5.35857 16.7791 5.94657 17.1441L9.36557 19.2631C10.1776 19.7671 11.0886 20.0191 11.9996 20.0191C12.9106 20.0191 13.8226 19.7671 14.6336 19.2631L18.0546 17.1431C18.6426 16.7791 18.9996 16.1371 18.9996 15.4451V11.1751L19.9996 10.6521V16.0531C19.9996 16.6061 20.4476 17.0531 20.9996 17.0531C21.5526 17.0531 21.9996 16.6061 21.9996 16.0531V9.00013C21.9996 8.87913 21.9706 8.76513 21.9306 8.65513Z" fill="black" fill-opacity="0.56"/>
</svg>
