<svg width="24" height="24" viewBox="0 0 24 24" fill="none" xmlns="http://www.w3.org/2000/svg">
<path fill-rule="evenodd" clip-rule="evenodd" d="M4.00031 12C4.00031 7.589 7.58931 4 12.0003 4C16.4113 4 20.0003 7.589 20.0003 12C20.0003 16.411 16.4113 20 12.0003 20C7.58931 20 4.00031 16.411 4.00031 12ZM2.00031 12C2.00031 17.514 6.48631 22 12.0003 22C17.5143 22 22.0003 17.514 22.0003 12C22.0003 6.486 17.5143 2 12.0003 2C6.48631 2 2.00031 6.486 2.00031 12ZM11.7932 13.4796L14.2122 11.0606C14.4152 10.8576 14.4152 10.5296 14.2122 10.3266C14.0092 10.1236 13.6802 10.1236 13.4782 10.3266L11.4262 12.3776L10.5752 11.5276C10.3722 11.3246 10.0432 11.3246 9.84021 11.5276C9.63821 11.7306 9.63821 12.0596 9.84021 12.2626L11.0582 13.4796C11.1592 13.5816 11.2922 13.6316 11.4262 13.6316C11.5592 13.6316 11.6912 13.5816 11.7932 13.4796ZM16.5882 8.7136V11.3826C16.6172 11.8126 16.7482 15.7356 12.1362 17.5066L11.9502 17.5786L11.7642 17.5066C7.15121 15.7356 7.28321 11.8126 7.31221 11.3826V8.7136L11.9502 6.5786L16.5882 8.7136Z" fill="black" fill-opacity="0.56"/>
</svg>
