<svg width="24" height="24" viewBox="0 0 24 24" fill="none" xmlns="http://www.w3.org/2000/svg">
<path fill-rule="evenodd" clip-rule="evenodd" d="M16.4473 9.308C16.5653 9.397 16.7733 9.49 17.0703 9.585C17.3683 9.681 17.6123 9.784 17.8023 9.894C18.2673 10.162 18.5003 10.531 18.5003 11.002C18.5003 11.378 18.3583 11.673 18.0743 11.888C17.7913 12.102 17.4023 12.21 16.9083 12.21C16.5593 12.21 16.2443 12.147 15.9613 12.022C15.6783 11.897 15.4663 11.726 15.3233 11.508C15.1803 11.29 15.1093 11.04 15.1093 10.757H16.1483C16.1483 10.987 16.2083 11.157 16.3273 11.266C16.4463 11.375 16.6403 11.43 16.9083 11.43C17.0793 11.43 17.2153 11.393 17.3143 11.319C17.4143 11.245 17.4633 11.141 17.4633 11.008C17.4633 10.856 17.4093 10.738 17.3023 10.653C17.1953 10.569 17.0073 10.481 16.7363 10.39C16.4673 10.3 16.2463 10.212 16.0753 10.127C15.5173 9.854 15.2393 9.477 15.2393 8.999C15.2393 8.761 15.3083 8.551 15.4473 8.369C15.5863 8.186 15.7823 8.044 16.0373 7.943C16.2913 7.842 16.5763 7.791 16.8933 7.791C17.2023 7.791 17.4793 7.846 17.7243 7.956C17.9693 8.067 18.1603 8.224 18.2963 8.428C18.4313 8.631 18.5003 8.864 18.5003 9.126H17.4663C17.4663 8.951 17.4123 8.815 17.3053 8.719C17.1983 8.622 17.0523 8.574 16.8693 8.574C16.6843 8.574 16.5383 8.615 16.4303 8.696C16.3233 8.778 16.2693 8.882 16.2693 9.008C16.2693 9.118 16.3293 9.218 16.4473 9.308ZM14.3263 12.151H13.2863V11.146L13.3863 9.091L12.3463 12.151H11.6623L10.6193 9.088L10.7193 11.146V12.151H9.68231V7.85H11.0443L12.0043 10.842L12.9613 7.85H14.3263V12.151ZM6.83831 9.308C6.95631 9.397 7.16431 9.49 7.46131 9.585C7.75931 9.681 8.00331 9.784 8.19331 9.894C8.65831 10.162 8.89031 10.531 8.89031 11.002C8.89031 11.378 8.74931 11.673 8.46631 11.888C8.18131 12.102 7.79331 12.21 7.2993 12.21C6.9503 12.21 6.63431 12.147 6.35231 12.022C6.06931 11.897 5.85631 11.726 5.71431 11.508C5.57131 11.29 5.50031 11.04 5.50031 10.757H6.54031C6.54031 10.987 6.59931 11.157 6.71831 11.266C6.8383 11.375 7.03131 11.43 7.2993 11.43C7.46931 11.43 7.60531 11.393 7.70531 11.319C7.80431 11.245 7.85431 11.141 7.85431 11.008C7.85431 10.856 7.80131 10.738 7.69331 10.653C7.58631 10.569 7.39731 10.481 7.12731 10.39C6.85731 10.3 6.63631 10.212 6.46631 10.127C5.90831 9.854 5.63031 9.477 5.63031 8.999C5.63031 8.761 5.69931 8.551 5.83831 8.369C5.97631 8.186 6.1743 8.044 6.42731 7.943C6.6813 7.842 6.96731 7.791 7.28431 7.791C7.59331 7.791 7.87031 7.846 8.1153 7.956C8.36031 8.067 8.55131 8.224 8.68731 8.428C8.82331 8.631 8.89031 8.864 8.89031 9.126H7.85731C7.85731 8.951 7.80331 8.815 7.69631 8.719C7.58931 8.622 7.44331 8.574 7.26031 8.574C7.0753 8.574 6.92831 8.615 6.82231 8.696C6.71531 8.778 6.66131 8.882 6.66131 9.008C6.66131 9.118 6.71931 9.218 6.83831 9.308ZM19.0003 2H5.00031C3.34531 2 2.00031 3.346 2.00031 5V19.793C2.00031 20.402 2.36331 20.946 2.92631 21.179C3.11231 21.256 3.30731 21.294 3.50131 21.294C3.89031 21.294 4.27231 21.141 4.56031 20.854L7.41431 18H19.0003C20.6543 18 22.0003 16.655 22.0003 15V5C22.0003 3.346 20.6543 2 19.0003 2Z" fill="black" fill-opacity="0.56"/>
</svg>
