<svg width="24" height="24" viewBox="0 0 24 24" fill="none" xmlns="http://www.w3.org/2000/svg">
<path fill-rule="evenodd" clip-rule="evenodd" d="M14.6797 7.2224L14.0997 6.6424C13.7277 6.2694 13.5227 5.7744 13.5227 5.2464C13.5227 4.7194 13.7287 4.2234 14.1037 3.8494C14.4887 3.4654 14.9927 3.2724 15.4987 3.2724C16.0047 3.2724 16.5107 3.4654 16.8957 3.8504L19.0737 6.0294L14.6797 7.2224ZM19.3137 14.6804C20.0797 15.4504 20.0797 16.7034 19.3157 17.4704C18.5447 18.2394 17.2917 18.2374 16.5237 17.4704L13.2487 14.2074C13.2157 14.1744 13.1717 14.1604 13.1347 14.1324C13.0837 14.0944 13.0337 14.0564 12.9767 14.0284C12.9157 13.9984 12.8547 13.9814 12.7897 13.9644C12.7297 13.9484 12.6707 13.9344 12.6077 13.9304C12.5407 13.9254 12.4767 13.9334 12.4097 13.9434C12.3667 13.9484 12.3247 13.9394 12.2817 13.9514L9.93267 14.5894L4.57667 9.2304C3.80967 8.4604 3.80967 7.2074 4.57567 6.4384C5.34567 5.6674 6.59667 5.6684 7.36767 6.4364C7.36767 6.4374 7.36767 6.4384 7.36867 6.4384L10.7677 9.8364C10.8007 9.8694 10.8437 9.8834 10.8797 9.9104C10.9317 9.9504 10.9817 9.9884 11.0407 10.0174C11.1017 10.0474 11.1627 10.0644 11.2277 10.0814C11.2867 10.0974 11.3447 10.1114 11.4077 10.1164C11.4767 10.1204 11.5427 10.1124 11.6137 10.1024C11.6547 10.0964 11.6957 10.1054 11.7367 10.0944L14.0857 9.4564L19.3137 14.6804ZM11.5297 16.2274L12.2457 16.0334L15.1107 18.8864L12.2257 19.6744C12.3107 19.3484 12.3687 19.0154 12.3687 18.6704C12.3687 17.7734 12.0747 16.9224 11.5297 16.2274ZM4.94467 18.0164L9.33767 16.8234L9.79167 17.2774C10.1637 17.6494 10.3687 18.1434 10.3687 18.6704C10.3687 19.1964 10.1637 19.6914 9.77967 20.0754C9.59267 20.2604 9.37667 20.4134 9.14167 20.5154L8.92267 20.5754C8.90867 20.5784 8.90067 20.5884 8.88767 20.5934C8.72467 20.6344 8.55867 20.6604 8.38467 20.6474C7.85867 20.6454 7.36467 20.4394 6.99167 20.0634L4.94467 18.0164ZM12.4697 7.8224L11.7717 8.0124L8.78667 5.0284L8.78367 5.0254L11.6627 4.2434C11.3457 5.4654 11.6077 6.8084 12.4697 7.8224ZM21.9667 6.7994C22.0577 6.4544 21.9587 6.0864 21.7067 5.8344L18.3097 2.4364C17.2697 1.3974 15.7967 1.0714 14.4677 1.4274C14.4397 1.4324 14.4107 1.4254 14.3817 1.4324L4.85567 4.0204C4.82067 4.0304 4.79367 4.0554 4.76067 4.0674C4.17567 4.2544 3.62267 4.5624 3.15867 5.0264C1.61767 6.5744 1.61767 9.0934 3.16067 10.6424L7.70867 15.1934L2.75567 16.5384C2.41067 16.6324 2.14267 16.9014 2.05067 17.2464C1.95967 17.5914 2.05867 17.9584 2.31067 18.2104L5.57467 21.4744C6.32167 22.2274 7.31667 22.6434 8.37767 22.6474H8.39167C8.71767 22.6474 9.03367 22.5954 9.34367 22.5184C9.37867 22.5134 9.41367 22.5144 9.45067 22.5044L18.9727 19.9064C19.0117 19.8954 19.0397 19.8694 19.0757 19.8544C19.6797 19.6714 20.2527 19.3604 20.7297 18.8854C22.2727 17.3364 22.2727 14.8174 20.7287 13.2674L16.3107 8.8514L21.2617 7.5064C21.6067 7.4134 21.8747 7.1434 21.9667 6.7994Z" fill="black" fill-opacity="0.56"/>
</svg>
