<svg width="24" height="24" viewBox="0 0 24 24" fill="none" xmlns="http://www.w3.org/2000/svg">
<path fill-rule="evenodd" clip-rule="evenodd" d="M2.00031 12C2.00031 17.514 6.48631 22 12.0003 22C17.5143 22 22.0003 17.514 22.0003 12C22.0003 6.486 17.5143 2 12.0003 2C6.48631 2 2.00031 6.486 2.00031 12ZM16.6192 9.882L13.6682 9.63L12.5132 6.904C12.3022 6.407 11.5982 6.407 11.3882 6.904L10.2312 9.63L7.28022 9.882C6.74222 9.929 6.52422 10.6 6.93322 10.953L9.17422 12.894L8.50122 15.779C8.37922 16.306 8.94922 16.721 9.41222 16.442L11.9492 14.91L14.4902 16.442C14.9532 16.722 15.5232 16.306 15.4002 15.779L14.7262 12.894L16.9672 10.953C17.3762 10.6 17.1582 9.929 16.6192 9.882Z" fill="black" fill-opacity="0.56"/>
</svg>
