<svg width="24" height="24" viewBox="0 0 24 24" fill="none" xmlns="http://www.w3.org/2000/svg">
<path fill-rule="evenodd" clip-rule="evenodd" d="M12 3.56152C11.626 3.56152 11.252 3.76452 11.079 4.17052L9.18802 8.62952L4.36002 9.04352C3.47902 9.11852 3.12202 10.2165 3.79102 10.7955L7.45902 13.9705L6.35702 18.6925C6.20102 19.3625 6.73202 19.9225 7.33202 19.9225C7.50402 19.9225 7.68102 19.8765 7.84902 19.7755L11.999 17.2695L16.156 19.7765C16.324 19.8775 16.5 19.9225 16.671 19.9225C17.271 19.9225 17.803 19.3625 17.646 18.6925L16.541 13.9705L20.209 10.7955C20.878 10.2165 20.521 9.11852 19.64 9.04352L14.812 8.62952L12.921 4.17052C12.748 3.76452 12.374 3.56152 12 3.56152ZM12 6.09852L13.339 9.25452L13.715 10.1425L14.675 10.2245L18.087 10.5165L15.494 12.7605L14.764 13.3935L14.983 14.3345L15.765 17.6715L12.824 15.8995L11.998 15.4015L11.172 15.9005L8.23802 17.6705L9.01702 14.3335L9.23602 13.3925L8.50602 12.7605L5.91302 10.5165L9.32502 10.2245L10.285 10.1425L10.661 9.25452L12 6.09852Z" fill="black" fill-opacity="0.56"/>
</svg>
