<svg width="24" height="24" viewBox="0 0 24 24" fill="none" xmlns="http://www.w3.org/2000/svg">
<path fill-rule="evenodd" clip-rule="evenodd" d="M4.00031 12C4.00031 7.589 7.58931 4 12.0003 4C16.4113 4 20.0003 7.589 20.0003 12C20.0003 16.411 16.4113 20 12.0003 20C7.58931 20 4.00031 16.411 4.00031 12ZM2.00031 12C2.00031 17.514 6.48631 22 12.0003 22C17.5143 22 22.0003 17.514 22.0003 12C22.0003 6.486 17.5143 2 12.0003 2C6.48631 2 2.00031 6.486 2.00031 12ZM16.6192 9.8818L13.6682 9.6298L12.5132 6.9038C12.3022 6.4068 11.5982 6.4068 11.3882 6.9038L10.2312 9.6298L7.28021 9.8818C6.74221 9.9288 6.52421 10.5998 6.93321 10.9528L9.1742 12.8938L8.50121 15.7788C8.37921 16.3058 8.94921 16.7208 9.41221 16.4418L11.9492 14.9098L14.4902 16.4418C14.9532 16.7218 15.5232 16.3058 15.4002 15.7788L14.7262 12.8938L16.9672 10.9528C17.3762 10.5998 17.1582 9.9288 16.6192 9.8818Z" fill="black" fill-opacity="0.56"/>
</svg>
