<svg width="24" height="24" viewBox="0 0 24 24" fill="none" xmlns="http://www.w3.org/2000/svg">
<path fill-rule="evenodd" clip-rule="evenodd" d="M8.5059 12.7603L9.2359 13.3933L9.0169 14.3343L8.2359 17.6723L11.1759 15.9003L11.9999 15.4033V6.09828L10.6609 9.25528L10.2849 10.1423L9.3249 10.2243L5.9129 10.5163L8.5059 12.7603ZM4.3599 9.04328L9.1889 8.63028L11.0789 4.17128C11.2519 3.76428 11.6259 3.56128 11.9999 3.56128C12.3739 3.56128 12.7479 3.76428 12.9209 4.17128L14.8119 8.63028L19.6399 9.04328C20.5209 9.11828 20.8779 10.2173 20.2089 10.7963L16.5409 13.9693L17.6429 18.6923C17.6649 18.7903 17.6699 18.8853 17.6649 18.9773C17.6629 19.0053 17.6579 19.0313 17.6539 19.0593C17.6459 19.1233 17.6319 19.1843 17.6109 19.2433C17.6019 19.2703 17.5929 19.2973 17.5809 19.3223C17.5539 19.3843 17.5209 19.4413 17.4819 19.4953C17.4699 19.5103 17.4609 19.5283 17.4489 19.5433C17.3959 19.6093 17.3339 19.6683 17.2659 19.7193C17.2499 19.7313 17.2329 19.7393 17.2159 19.7503C17.1609 19.7863 17.1039 19.8173 17.0429 19.8433C17.0169 19.8533 16.9899 19.8623 16.9639 19.8703C16.9049 19.8883 16.8469 19.9013 16.7849 19.9083C16.7589 19.9123 16.7339 19.9163 16.7059 19.9183C16.6939 19.9183 16.6809 19.9223 16.6679 19.9223C16.6179 19.9223 16.5689 19.9093 16.5199 19.9023C16.4879 19.8973 16.4579 19.8973 16.4269 19.8893C16.3349 19.8653 16.2419 19.8293 16.1529 19.7763C16.1519 19.7753 16.1519 19.7753 16.1519 19.7753L12.0019 17.2703L7.8439 19.7763C7.6759 19.8773 7.4999 19.9233 7.3289 19.9233C6.7289 19.9233 6.1969 19.3633 6.3549 18.6923L7.4589 13.9693L3.7909 10.7963C3.1219 10.2173 3.4799 9.11828 4.3599 9.04328Z" fill="black" fill-opacity="0.56"/>
</svg>
