<svg width="24" height="24" viewBox="0 0 24 24" fill="none" xmlns="http://www.w3.org/2000/svg">
<path d="M6.14855 11.8886L3.34855 14.6486C3.14855 14.8486 3.14855 15.1686 3.34855 15.3586L6.14855 18.1186C6.46855 18.4186 6.99855 18.1986 6.99855 17.7586V15.9986L12.9985 15.9986C13.5485 15.9986 13.9985 15.5486 13.9985 14.9986C13.9985 14.4486 13.5485 13.9986 12.9985 13.9986H6.99855L6.99855 12.2386C6.99855 11.7986 6.46855 11.5786 6.14855 11.8886Z" fill="black" fill-opacity="0.56"/>
<path d="M16.9984 6.23861V7.99861L10.9984 7.99861C10.4484 7.99861 9.99835 8.44861 9.99835 8.99861C9.99835 9.54861 10.4484 9.99861 10.9984 9.99861L16.9984 9.99861V11.7586C16.9984 12.1986 17.5284 12.4286 17.8484 12.1186L20.6484 9.35861C20.8484 9.15861 20.8484 8.83861 20.6484 8.64861L17.8484 5.88861C17.5284 5.57861 16.9984 5.79861 16.9984 6.23861Z" fill="black" fill-opacity="0.56"/>
</svg>
