<svg width="24" height="24" viewBox="0 0 24 24" fill="none" xmlns="http://www.w3.org/2000/svg">
<path fill-rule="evenodd" clip-rule="evenodd" d="M21.2539 11.4856C20.8259 12.0066 20.3019 12.4456 19.7119 12.7806C19.9419 13.1656 19.9089 13.6626 19.5779 13.9936L13.9979 19.5736C13.6079 19.9646 12.9739 19.9646 12.5829 19.5736L5.14988 12.1406C5.05688 12.0466 5.00388 11.9196 5.00388 11.7866L4.99988 5.49661C4.99988 5.21961 5.22488 4.99561 5.50088 4.99661L11.7909 4.99961C11.9239 4.99961 12.0509 5.05261 12.1449 5.14661L12.2439 5.24561C12.5839 4.66061 13.0249 4.14361 13.5479 3.72161L13.1189 3.29261C12.9319 3.10561 12.6779 2.99961 12.4119 2.99961L5.00188 2.99561H4.99988C4.46588 2.99561 3.96388 3.20361 3.58588 3.58161C3.20788 3.95961 2.99988 4.46161 2.99988 4.99661L3.00388 12.4086C3.00388 12.6736 3.10888 12.9276 3.29688 13.1156L11.1689 20.9876C11.7539 21.5726 12.5229 21.8656 13.2909 21.8656C14.0589 21.8656 14.8269 21.5726 15.4119 20.9876L20.9919 15.4076C22.0649 14.3356 22.1439 12.6606 21.2539 11.4856ZM6.43948 6.43931C5.85348 7.02531 5.85348 7.97431 6.43948 8.56031C7.02548 9.14631 7.97448 9.14631 8.56048 8.56031C9.14648 7.97431 9.14648 7.02531 8.56048 6.43931C7.97448 5.85331 7.02548 5.85331 6.43948 6.43931ZM15.6152 7.62681C15.4202 7.43181 15.1032 7.43181 14.9082 7.62681C14.7132 7.82181 14.7132 8.13881 14.9082 8.33381L16.0802 9.50581C16.1782 9.60381 16.3052 9.65181 16.4332 9.65181C16.5612 9.65181 16.6892 9.60381 16.7872 9.50581L19.1152 7.17781C19.3102 6.98181 19.3102 6.66581 19.1152 6.47081C18.9202 6.27481 18.6032 6.27481 18.4082 6.47081L16.4332 8.44481L15.6152 7.62681ZM21.5002 7.99981C21.5002 10.4848 19.4852 12.4998 17.0002 12.4998C14.5142 12.4998 12.5002 10.4848 12.5002 7.99981C12.5002 5.51481 14.5142 3.49981 17.0002 3.49981C19.4852 3.49981 21.5002 5.51481 21.5002 7.99981Z" fill="black" fill-opacity="0.56"/>
</svg>
