<svg width="24" height="24" viewBox="0 0 24 24" fill="none" xmlns="http://www.w3.org/2000/svg">
<path d="M22.87 9.87992C22.6 9.39992 21.99 9.21992 21.51 9.48992L20.44 10.0799L18.45 6.33992C17.91 5.31992 16.83 4.67992 15.63 4.66992V3.91992C15.63 3.36992 15.18 2.91992 14.63 2.91992H9.35998C8.80998 2.91992 8.35998 3.36992 8.35998 3.91992V4.67992C7.16998 4.68992 6.08998 5.32992 5.54998 6.34992L3.55998 10.0899L2.48998 9.48992C2.00998 9.21992 1.39998 9.39992 1.12998 9.87992C0.859978 10.3599 1.03998 10.9699 1.51998 11.2399L2.87998 11.9999C2.78998 12.4399 2.72998 12.8899 2.72998 13.3499V17.3799H2.73998C2.73998 17.3899 2.73998 17.3999 2.73998 17.4099V18.7699V20.0199C2.73998 20.7099 3.29998 21.2699 3.98998 21.2699C4.67998 21.2699 5.23998 20.7099 5.23998 20.0199V18.7699V18.5299C7.48998 18.7299 9.73998 18.8299 11.99 18.8299C14.25 18.8299 16.5 18.7299 18.75 18.5299V18.7699V20.0199C18.75 20.7099 19.31 21.2699 20 21.2699C20.69 21.2699 21.25 20.7099 21.25 20.0199V18.7699V17.4099H21.24C21.24 17.3999 21.24 17.3899 21.24 17.3799H21.26V13.3499C21.26 12.8999 21.2 12.4499 21.11 11.9999L22.47 11.2399C22.97 10.9699 23.14 10.3599 22.87 9.87992ZM7.30998 7.28992C7.50998 6.91992 7.93998 6.67992 8.39998 6.67992H15.6C16.06 6.67992 16.49 6.91992 16.69 7.28992L18.45 10.5899C14.17 11.0799 9.83998 11.0799 5.55998 10.5899L7.30998 7.28992ZM4.72998 16.4599V15.2399C5.63998 15.3499 6.54998 15.4499 7.45998 15.5199C7.47998 15.5199 7.49998 15.5199 7.51998 15.5199C7.90998 15.5199 8.23998 15.2199 8.26998 14.8299C8.29998 14.4199 7.98998 14.0599 7.57998 14.0199C6.67998 13.9499 5.77998 13.8599 4.87998 13.7399L4.73998 13.7199V13.3399C4.73998 13.0699 4.76998 12.7899 4.81998 12.5199C7.20998 12.8199 9.60998 12.9699 12.01 12.9699C14.41 12.9699 16.81 12.8199 19.2 12.5199C19.25 12.7899 19.28 13.0599 19.28 13.3399V13.7199L19.12 13.7399C18.22 13.8499 17.33 13.9499 16.43 14.0199C16.02 14.0499 15.71 14.4099 15.74 14.8299C15.77 15.2199 16.1 15.5199 16.49 15.5199C16.51 15.5199 16.53 15.5199 16.55 15.5199C17.47 15.4499 18.38 15.3499 19.28 15.2399V16.4599C14.44 16.9299 9.55998 16.9299 4.72998 16.4599Z" fill="black" fill-opacity="0.56"/>
</svg>
