<svg width="24" height="24" viewBox="0 0 24 24" fill="none" xmlns="http://www.w3.org/2000/svg">
<path d="M22.87 9.87992C22.6 9.39992 21.99 9.21992 21.51 9.48992L20.44 10.0799L18.45 6.33992C17.91 5.31992 16.83 4.67992 15.63 4.66992V3.91992C15.63 3.36992 15.18 2.91992 14.63 2.91992H9.36004C8.81004 2.91992 8.36004 3.36992 8.36004 3.91992V4.67992C7.17004 4.68992 6.09004 5.32992 5.55004 6.34992L3.56004 10.0899L2.49004 9.48992C2.01004 9.21992 1.40004 9.39992 1.13004 9.87992C0.860039 10.3599 1.04004 10.9699 1.52004 11.2399L2.88004 11.9999C2.79004 12.4399 2.73004 12.8899 2.73004 13.3499V17.3799H2.74004C2.74004 17.3899 2.74004 17.3999 2.74004 17.4099V18.7699V20.0199C2.74004 20.7099 3.30004 21.2699 3.99004 21.2699C4.68004 21.2699 5.24004 20.7099 5.24004 20.0199V18.7699V18.5299C7.49004 18.7299 9.74004 18.8299 11.99 18.8299C14.25 18.8299 16.5 18.7299 18.75 18.5299V18.7699V20.0199C18.75 20.7099 19.31 21.2699 20 21.2699C20.69 21.2699 21.25 20.7099 21.25 20.0199V18.7699V17.4099H21.24C21.24 17.3999 21.24 17.3899 21.24 17.3799H21.26V13.3499C21.26 12.8999 21.2 12.4499 21.11 11.9999L22.47 11.2399C22.97 10.9699 23.14 10.3599 22.87 9.87992ZM8.32004 15.4799C8.30004 15.4799 8.28004 15.4799 8.26004 15.4799C7.47004 15.4199 6.67004 15.3399 5.88004 15.2499L4.98004 15.1499C4.57004 15.1099 4.27004 14.7399 4.31004 14.3199C4.35004 13.9099 4.71004 13.6099 5.14004 13.6499L6.05004 13.7499C6.83004 13.8399 7.60004 13.9199 8.37004 13.9799C8.78004 14.0099 9.09004 14.3699 9.06004 14.7799C9.04004 15.1799 8.71004 15.4799 8.32004 15.4799ZM5.55004 10.5899L7.31004 7.29992C7.51004 6.92992 7.94004 6.68992 8.40004 6.68992H15.6C16.06 6.68992 16.49 6.92992 16.69 7.29992L18.45 10.5999C14.17 11.0799 9.84004 11.0799 5.55004 10.5899ZM19.02 15.1499L18.11 15.2499C17.33 15.3499 16.53 15.4199 15.74 15.4799C15.72 15.4799 15.7 15.4799 15.68 15.4799C15.29 15.4799 14.96 15.1799 14.93 14.7899C14.9 14.3799 15.21 14.0199 15.62 13.9899C16.39 13.9299 17.16 13.8599 17.93 13.7599L18.85 13.6599C19.27 13.6199 19.63 13.9099 19.68 14.3299C19.73 14.7299 19.43 15.0999 19.02 15.1499Z" fill="black" fill-opacity="0.56"/>
</svg>
