<svg width="24" height="24" viewBox="0 0 24 24" fill="none" xmlns="http://www.w3.org/2000/svg">
<path fill-rule="evenodd" clip-rule="evenodd" d="M6.90802 3.00684H14C15.654 3.00684 17 4.35284 17 6.00684V14.0648C17 14.8048 16.728 15.5168 16.232 16.0688L11.804 21.0048C11.335 21.5278 10.694 21.8028 10.037 21.8028C9.67102 21.8028 9.30002 21.7178 8.95002 21.5408C7.97402 21.0478 7.46702 19.9958 7.68802 18.9238L8.29502 16.0068H3.36302C2.31202 16.0068 1.35702 15.4728 0.80802 14.5778C0.25802 13.6828 0.21202 12.5888 0.68702 11.6518L4.23102 4.65184C4.74602 3.63684 5.77102 3.00684 6.90802 3.00684ZM19.9746 3.00684H21.9746C23.0776 3.00684 23.9746 3.90384 23.9746 5.00684V13.0068C23.9746 14.1098 23.0776 15.0068 21.9746 15.0068H19.9746C18.8716 15.0068 17.9746 14.1098 17.9746 13.0068V5.00684C17.9746 3.90384 18.8716 3.00684 19.9746 3.00684Z" fill="black" fill-opacity="0.56"/>
</svg>
