<svg width="24" height="24" viewBox="0 0 24 24" fill="none" xmlns="http://www.w3.org/2000/svg">
<path fill-rule="evenodd" clip-rule="evenodd" d="M6.01571 5.549L2.47171 12.548C2.24271 12.999 2.42271 13.381 2.51171 13.524C2.59971 13.667 2.85871 14 3.36371 14H9.52371C9.82471 14 10.1097 14.135 10.2987 14.369C10.4897 14.602 10.5637 14.909 10.5027 15.203L9.64771 19.324C9.59471 19.577 9.75271 19.699 9.85271 19.75C9.89871 19.773 9.96471 19.797 10.0387 19.797C10.1257 19.797 10.2227 19.765 10.3157 19.663L14.7447 14.725C14.9097 14.542 14.9997 14.304 14.9997 14.058V6C14.9997 5.448 14.5527 5 13.9997 5H6.90871C6.53171 5 6.18571 5.212 6.01571 5.549ZM8.29471 16H3.36571C2.78071 16 2.18671 15.867 1.70971 15.528C0.377709 14.578 0.0217087 12.957 0.686709 11.645L4.27971 4.55C4.76071 3.6 5.73671 3 6.80271 3H14.1717C15.7337 3 16.9997 4.267 16.9997 5.829V14.058C16.9997 14.8 16.7277 15.512 16.2317 16.063L11.8037 20.998C10.8777 22.03 9.27771 22.102 8.20871 20.979C7.69571 20.439 7.53571 19.648 7.68871 18.919L8.29471 16ZM22 12.5001V5.5001C22 5.2241 21.776 5.0001 21.5 5.0001H20.499C20.223 5.0001 19.999 5.2241 19.999 5.5001L20 12.5001C20 12.7761 20.224 13.0001 20.5 13.0001H21.5C21.776 13.0001 22 12.7761 22 12.5001ZM22 15.0001H20C18.896 15.0001 18 14.1041 18 13.0001V5.0001C18 3.8961 18.896 3.0001 20 3.0001H22C23.104 3.0001 24 3.8961 24 5.0001V13.0001C24 14.1041 23.104 15.0001 22 15.0001Z" fill="black" fill-opacity="0.56"/>
</svg>
