<svg width="24" height="24" viewBox="0 0 24 24" fill="none" xmlns="http://www.w3.org/2000/svg">
<path fill-rule="evenodd" clip-rule="evenodd" d="M17.0203 10.0009H7.02033C6.46733 10.0009 6.02033 9.55291 6.02033 9.00091C6.02033 8.44891 6.46733 8.00091 7.02033 8.00091H17.0203C17.5733 8.00091 18.0203 8.44891 18.0203 9.00091C18.0203 9.55291 17.5733 10.0009 17.0203 10.0009ZM12.0203 14.0009H7.02033C6.46733 14.0009 6.02033 13.5529 6.02033 13.0009C6.02033 12.4489 6.46733 12.0009 7.02033 12.0009H12.0203C12.5733 12.0009 13.0203 12.4489 13.0203 13.0009C13.0203 13.5529 12.5733 14.0009 12.0203 14.0009ZM18.9993 1.87891H4.99933C3.34533 1.87891 1.99933 3.22491 1.99933 4.87891V16.8789C1.99933 18.5339 3.34533 19.8789 4.99933 19.8789H8.05033L10.5853 22.4149C10.9753 22.8049 11.4883 22.9999 11.9993 22.9999C12.5113 22.9999 13.0243 22.8049 13.4143 22.4149L15.9503 19.8789H18.9993C20.6543 19.8789 21.9993 18.5339 21.9993 16.8789V4.87891C21.9993 3.22491 20.6543 1.87891 18.9993 1.87891Z" fill="black" fill-opacity="0.56"/>
</svg>
