<svg width="24" height="24" viewBox="0 0 24 24" fill="none" xmlns="http://www.w3.org/2000/svg">
<path fill-rule="evenodd" clip-rule="evenodd" d="M8.00018 2C10.5692 2 12.7592 3.626 13.6132 5.901C10.6532 6.905 8.51418 9.704 8.51418 13C8.51418 15.009 9.33218 16.907 10.7312 18.303C10.1922 18.582 9.62318 18.799 9.01718 18.903L9.00018 21.008C8.99518 21.557 8.54918 22 8.00018 22H7.99218C7.43918 21.995 6.99518 21.544 7.00018 20.991L7.01718 18.912C4.17518 18.441 2.00018 15.973 2.00018 13V8C2.00018 4.691 4.69118 2 8.00018 2ZM15.9999 6.9996C19.3089 6.9996 21.9999 9.6906 21.9999 12.9996C21.9999 15.9546 19.8519 18.4116 17.0349 18.9036L16.9999 21.0166C16.9909 21.5626 16.5449 21.9996 15.9999 21.9996H15.9829C15.4319 21.9906 14.9909 21.5356 14.9999 20.9826L15.0339 18.9146C12.1849 18.4506 9.99988 15.9786 9.99988 12.9996C9.99988 9.6906 12.6909 6.9996 15.9999 6.9996Z" fill="black" fill-opacity="0.56"/>
</svg>
