<svg width="24" height="24" viewBox="0 0 24 24" fill="none" xmlns="http://www.w3.org/2000/svg">
<path d="M15.4238 8.82404C15.4238 9.08404 15.5238 9.33404 15.7138 9.53404L18.1738 11.994L15.7238 14.444C15.5238 14.644 15.4338 14.894 15.4338 15.154C15.4338 15.414 15.5338 15.664 15.7238 15.864C16.1138 16.254 16.7438 16.254 17.1338 15.864L20.2938 12.704C20.6838 12.314 20.6838 11.684 20.2938 11.294L17.1238 8.12404C16.7338 7.73404 16.1038 7.73404 15.7138 8.12404C15.5138 8.31404 15.4238 8.57404 15.4238 8.82404Z" fill="black" fill-opacity="0.56"/>
<path d="M8.28377 14.444L5.83377 11.994L8.29377 9.53404C8.68377 9.14404 8.68377 8.51404 8.29377 8.12404C7.90377 7.73404 7.27377 7.73404 6.88377 8.12404L3.71377 11.294C3.51377 11.494 3.42377 11.744 3.42377 12.004C3.42377 12.264 3.52377 12.514 3.71377 12.714L6.87377 15.874C7.26377 16.264 7.89377 16.264 8.28377 15.874C8.67377 15.464 8.67377 14.834 8.28377 14.444Z" fill="black" fill-opacity="0.56"/>
</svg>
