<svg width="24" height="24" viewBox="0 0 24 24" fill="none" xmlns="http://www.w3.org/2000/svg">
<path d="M8.83002 8.58047C9.09002 8.58047 9.34002 8.48047 9.54002 8.29047L12 5.83047L14.45 8.28047C14.65 8.48047 14.9 8.57047 15.16 8.57047C15.42 8.57047 15.67 8.47047 15.87 8.28047C16.26 7.89047 16.26 7.26047 15.87 6.87047L12.71 3.71047C12.32 3.32047 11.69 3.32047 11.3 3.71047L8.13002 6.88047C7.74002 7.27047 7.74002 7.90047 8.13002 8.29047C8.32002 8.49047 8.58002 8.58047 8.83002 8.58047Z" fill="black" fill-opacity="0.56"/>
<path d="M14.45 15.7205L12 18.1705L9.54002 15.7105C9.15002 15.3205 8.52002 15.3205 8.13002 15.7105C7.74002 16.1005 7.74002 16.7305 8.13002 17.1205L11.3 20.2905C11.5 20.4905 11.75 20.5805 12.01 20.5805C12.27 20.5805 12.52 20.4805 12.72 20.2905L15.88 17.1305C16.27 16.7405 16.27 16.1105 15.88 15.7205C15.47 15.3305 14.84 15.3305 14.45 15.7205Z" fill="black" fill-opacity="0.56"/>
</svg>
