<svg width="24" height="24" viewBox="0 0 24 24" fill="none" xmlns="http://www.w3.org/2000/svg">
<path fill-rule="evenodd" clip-rule="evenodd" d="M18.8259 14.7152C19.4039 14.7152 19.9569 14.5362 20.4219 14.1972C20.8699 13.8712 21.4949 13.9712 21.8189 14.4172C22.1449 14.8642 22.0459 15.4892 21.5999 15.8142C20.7889 16.4042 19.8299 16.7152 18.8259 16.7152C16.2269 16.7152 14.1109 14.6002 14.1109 12.0002C14.1109 9.40018 16.2269 7.28418 18.8259 7.28418C19.8299 7.28418 20.7889 7.59618 21.5999 8.18518C22.0459 8.51018 22.1449 9.13518 21.8189 9.58218C21.4949 10.0292 20.8689 10.1272 20.4219 9.80218C19.9569 9.46418 19.4039 9.28418 18.8259 9.28418C17.3289 9.28418 16.1109 10.5032 16.1109 12.0002C16.1109 13.4972 17.3289 14.7152 18.8259 14.7152ZM11.6531 7.97928C11.8241 7.45428 12.3891 7.16728 12.9131 7.33728C13.4381 7.50828 13.7261 8.07228 13.5561 8.59728L11.1511 15.9963C11.0191 16.4003 10.6471 16.6773 10.2231 16.6863C9.78208 16.6973 9.41408 16.4363 9.26408 16.0383L7.79708 12.1313L6.32908 16.0383C6.18208 16.4293 5.80908 16.6873 5.39208 16.6873C5.38508 16.6873 5.37808 16.6873 5.37008 16.6863C4.94508 16.6773 4.57308 16.4003 4.44108 15.9963L2.03808 8.59728C1.86708 8.07228 2.15508 7.50828 2.68108 7.33728C3.20508 7.16728 3.76908 7.45428 3.94008 7.97928L5.46108 12.6613L6.86008 8.93728C7.00708 8.54628 7.38008 8.28828 7.79708 8.28828C8.21408 8.28828 8.58708 8.54628 8.73308 8.93728L10.1321 12.6613L11.6531 7.97928Z" fill="black" fill-opacity="0.56"/>
</svg>
