<svg width="24" height="24" viewBox="0 0 24 24" fill="none" xmlns="http://www.w3.org/2000/svg">
<path d="M3.97003 10.03C4.27003 10.03 4.57003 9.94 4.83003 9.76C6.94003 8.28 9.42003 7.5 12 7.5C12.65 7.5 13.3 7.56 13.93 7.66L16.42 5.17C15 4.74 13.52 4.5 12 4.5C8.80003 4.5 5.72003 5.47 3.11003 7.3C2.43003 7.78 2.26003 8.72 2.74003 9.39C3.03003 9.81 3.50003 10.03 3.97003 10.03Z" fill="black" fill-opacity="0.56"/>
<path d="M22.75 3.08937C22.36 2.69938 21.73 2.69938 21.34 3.08937L18.5 5.92937C18.5 5.92937 18.5 5.92937 18.49 5.92937L16.19 8.22937C16.19 8.22937 16.19 8.22937 16.2 8.22937L14.19 10.2394C14.19 10.2394 14.19 10.2394 14.18 10.2394L11.35 13.0694H11.36L4.14003 20.2894C3.75003 20.6794 3.75003 21.3094 4.14003 21.6994C4.33003 21.8994 4.58003 21.9994 4.84003 21.9994C5.10003 21.9994 5.35003 21.8994 5.55003 21.7094L9.68003 17.5794C9.73003 17.6594 9.76003 17.7494 9.83003 17.8194L11.3 19.2994C11.69 19.6894 12.33 19.6894 12.72 19.2994L14.19 17.8194C14.66 17.3494 14.56 16.5394 13.97 16.2394C13.38 15.9294 12.71 15.7594 12.01 15.7594C11.82 15.7594 11.64 15.7694 11.46 15.7994L13.95 13.3094C14.68 13.5194 15.38 13.8294 16.02 14.2694C16.7 14.7494 17.63 14.5794 18.11 13.8994C18.59 13.2194 18.42 12.2894 17.74 11.8094C17.28 11.4894 16.79 11.2094 16.29 10.9694L18.14 9.11937C18.48 9.30937 18.82 9.51937 19.15 9.74937C19.83 10.2194 20.76 10.0594 21.24 9.37937C21.71 8.69938 21.55 7.76937 20.87 7.28937C20.69 7.16937 20.51 7.05937 20.33 6.93937L22.76 4.50938C23.14 4.10938 23.14 3.47938 22.75 3.08937Z" fill="black" fill-opacity="0.56"/>
<path d="M6.26002 11.8095C5.58002 12.2895 5.42002 13.2195 5.89002 13.8995C6.17002 14.2995 6.60002 14.5095 7.05002 14.5295L11.56 10.0195C9.66002 10.0995 7.83002 10.7095 6.26002 11.8095Z" fill="black" fill-opacity="0.56"/>
</svg>
