<svg width="54" height="89" viewBox="0 0 54 89" fill="none" xmlns="http://www.w3.org/2000/svg">
<path fill-rule="evenodd" clip-rule="evenodd" d="M23.3308 2.15007C23.6494 1.71328 24.0667 1.35792 24.5487 1.11292C25.0306 0.86793 25.5636 0.740234 26.1043 0.740234C26.6449 0.740234 27.178 0.86793 27.6599 1.11292C28.1419 1.35792 28.5592 1.71328 28.8778 2.15007L49.9718 30.6301C51.4048 32.5647 52.1781 34.9086 52.1778 37.3161V86.3071C52.1786 86.9507 51.924 87.5683 51.4699 88.0245C51.0159 88.4806 50.3994 88.738 49.7558 88.7401H26.1058C11.7098 88.7401 0.0297852 76.9321 0.0297852 62.3551V37.1171C0.0297852 34.8431 0.772785 32.6091 2.11979 30.7881L23.3308 2.15007ZM27.0218 7.47007C26.5718 6.85707 25.6348 6.85707 25.1668 7.47007L5.83079 33.5981C5.07178 34.6149 4.66079 35.8492 4.65879 37.1181V61.9991C4.65879 73.9061 13.9948 83.8551 25.7528 84.0531C37.7448 84.2501 47.5298 74.4601 47.5298 62.3551V37.3151C47.5298 35.9311 47.0798 34.5661 46.2598 33.4391L27.0218 7.47007ZM25.5078 16.3261C25.9778 15.7111 26.9158 15.7111 27.3658 16.3261L42.5738 36.8671C43.0227 37.4824 43.2624 38.2254 43.2578 38.9871V63.4511C43.2578 72.7411 35.9078 80.3091 26.7798 80.4871C17.3568 80.6651 9.63579 72.6621 9.63579 63.1141V38.9681C9.63579 38.1951 9.87079 37.4621 10.3198 36.8481L25.5078 16.3261ZM27.0918 23.7741C27.0175 23.6728 26.9204 23.5904 26.8083 23.5337C26.6962 23.4769 26.5724 23.4473 26.4468 23.4473C26.3212 23.4473 26.1973 23.4769 26.0853 23.5337C25.9732 23.5904 25.8761 23.6728 25.8018 23.7741L14.8548 38.5701C14.4714 39.0776 14.2655 39.697 14.2688 40.3331V63.1731C14.2688 70.0861 19.8588 75.9101 26.6818 75.7721C33.3088 75.6521 38.6258 70.1861 38.6258 63.4501V40.3341C38.6258 39.7011 38.4108 39.0861 38.0388 38.5711L27.0918 23.7741ZM26.1538 31.3181C26.2281 31.2164 26.3253 31.1337 26.4375 31.0767C26.5498 31.0197 26.6739 30.99 26.7998 30.99C26.9257 30.99 27.0498 31.0197 27.1621 31.0767C27.2743 31.1337 27.3715 31.2164 27.4458 31.3181L33.7698 39.8541C34.1418 40.3701 34.3378 40.9861 34.3378 41.6211V63.0211C34.3378 67.3101 30.8918 70.9431 26.6618 70.8641C22.5518 70.7841 19.2418 67.4101 19.2418 63.2201V41.6211C19.2418 40.9861 19.4568 40.3711 19.8298 39.8541L26.1538 31.3181ZM27.2698 38.9211C27.2158 38.8471 27.145 38.7869 27.0634 38.7454C26.9817 38.7039 26.8914 38.6823 26.7998 38.6823C26.7082 38.6823 26.6179 38.7039 26.5362 38.7454C26.4545 38.7869 26.3838 38.8471 26.3298 38.9211L24.2158 41.7801C23.9998 42.0581 23.9018 42.4151 23.9018 42.7721V63.1021C23.9018 64.7091 25.1348 66.1191 26.7218 66.1581C28.3658 66.1981 29.6968 64.8681 29.6968 63.2201V42.7721C29.6968 42.4151 29.5798 42.0581 29.3838 41.7801L27.2698 38.9211Z" fill="#222222"/>
</svg>
